<?xml version="1.0" encoding="UTF-8" standalone="no"?>
<!-- Created with Inkscape (http://www.inkscape.org/) -->

<svg
   xmlns:dc="http://purl.org/dc/elements/1.1/"
   xmlns:cc="http://creativecommons.org/ns#"
   xmlns:rdf="http://www.w3.org/1999/02/22-rdf-syntax-ns#"
   xmlns:svg="http://www.w3.org/2000/svg"
   xmlns="http://www.w3.org/2000/svg"
   xmlns:sodipodi="http://sodipodi.sourceforge.net/DTD/sodipodi-0.dtd"
   xmlns:inkscape="http://www.inkscape.org/namespaces/inkscape"
   width="1192.4257"
   height="859.48157"
   viewBox="0 0 315.49597 227.4045"
   version="1.1"
   id="svg8"
   inkscape:version="0.92.2 2405546, 2018-03-11"
   sodipodi:docname="zena.svg">
  <defs
     id="defs2" />
  <sodipodi:namedview
     id="base"
     pagecolor="#ffffff"
     bordercolor="#666666"
     borderopacity="1.0"
     inkscape:pageopacity="0.0"
     inkscape:pageshadow="2"
     inkscape:zoom="0.98994949"
     inkscape:cx="681.32143"
     inkscape:cy="721.2238"
     inkscape:document-units="mm"
     inkscape:current-layer="layer1"
     showgrid="false"
     fit-margin-top="0"
     fit-margin-left="0"
     fit-margin-right="0"
     fit-margin-bottom="0"
     units="px"
     inkscape:window-width="3834"
     inkscape:window-height="2079"
     inkscape:window-x="0"
     inkscape:window-y="78"
     inkscape:window-maximized="0" />
  <metadata
     id="metadata5">
    <rdf:RDF>
      <cc:Work
         rdf:about="">
        <dc:format>image/svg+xml</dc:format>
        <dc:type
           rdf:resource="http://purl.org/dc/dcmitype/StillImage" />
        <dc:title></dc:title>
      </cc:Work>
    </rdf:RDF>
  </metadata>
  <g
     inkscape:label="Layer 1"
     inkscape:groupmode="layer"
     id="layer1"
     transform="translate(598.63794,251.36427)">
    <path
       style="fill:#232323;fill-opacity:1;stroke-width:1"
       d="m -339.50433,-141.05992 c -0.31565,-0.0147 -0.58729,0.16577 -0.53433,0.55449 0.0414,0.30418 -0.067,0.55294 -0.24081,0.55294 -0.17384,0 -0.29602,-0.17757 -0.27182,-0.39481 0.0744,-0.66915 -0.63147,-0.42306 -1.59112,0.555 -0.50329,0.51294 -1.17883,1.01645 -1.5012,1.1188 -0.6352,0.20161 -0.80763,0.77514 -0.23306,0.77514 0.21655,0 0.27265,0.27432 0.14521,0.71107 -0.11411,0.39111 -0.35508,1.59925 -0.53537,2.68459 -0.27524,1.65689 -0.25018,2.051 0.1571,2.45825 0.4836,0.48349 0.3821,1.4149 -0.154,1.4149 -0.42951,0 -0.33716,1.34385 0.19586,2.85461 0.43168,1.22381 0.42833,1.42877 -0.0326,2.13217 -0.28042,0.42796 -0.77955,0.8486 -1.10949,0.93482 -0.32994,0.0863 -0.59996,0.28251 -0.59996,0.43615 0,0.15353 -0.28438,0.27905 -0.63201,0.27905 -0.35115,0 -0.632,0.21104 -0.632,0.47439 0,0.27763 0.28771,0.47388 0.69505,0.47388 0.54078,0 0.61121,0.0843 0.31626,0.3793 -0.29496,0.29496 -0.46363,0.29496 -0.75861,0 -0.51796,-0.51795 -1.20096,-0.47811 -1.20096,0.0703 0,0.24741 -0.36763,0.88705 -0.81701,1.4211 -0.44937,0.53406 -0.91881,1.35151 -1.04334,1.81695 -0.22033,0.82391 -0.59326,1.15599 -1.66398,1.48208 -0.68796,0.20951 -1.15922,5.70792 -0.63562,7.41401 0.35533,1.15773 -3e-4,2.1544 -0.62994,1.76527 -0.16174,-0.0999 -0.46577,-0.0448 -0.6754,0.12299 -0.20965,0.16773 -1.30704,0.61412 -2.43861,0.99219 -1.95681,0.65381 -2.08592,0.76042 -2.64067,2.17196 -0.32084,0.81627 -0.77111,1.91044 -1.00047,2.43189 -0.22934,0.52145 -0.58701,1.62604 -0.79529,2.45463 -0.2082,0.828589 -0.50326,1.583649 -0.65577,1.677939 -0.15245,0.0942 -0.27752,0.45343 -0.27752,0.7984 0,0.34496 -0.35507,1.01085 -0.7896,1.47949 -0.43457,0.46864 -0.79015,1.02651 -0.79015,1.23972 0,0.21326 -0.50091,0.88851 -1.1131,1.50069 -0.87897,0.87895 -1.07196,1.27787 -0.91673,1.896 0.13547,0.53982 -0.01,1.04452 -0.46717,1.62626 -0.36497,0.46398 -0.66352,1.03051 -0.66352,1.25884 0,0.47137 -1.34922,2.02123 -1.77456,2.03915 -0.51192,0.0211 -2.01798,2.29168 -2.01798,3.04219 0,0.60852 -0.3401,0.93645 -0.71107,0.68575 -0.24445,-0.16526 -1.51371,0.779 -1.47381,1.09657 0.10906,0.86888 -0.0625,1.16892 -0.66921,1.16892 -0.35308,0 -0.71757,-0.19773 -0.81028,-0.43925 -0.0974,-0.25385 -0.42667,-0.37155 -0.78031,-0.27905 -0.33642,0.088 -0.61185,0.0184 -0.61185,-0.15451 0,-0.17301 -0.39582,-0.47858 -0.87953,-0.67903 -0.48371,-0.20038 -1.27505,-0.78326 -1.75855,-1.29553 -0.4835,-0.51227 -1.04762,-0.89902 -1.25368,-0.85938 -0.21587,0.0416 -0.34261,-0.22921 -0.29919,-0.63872 0.0488,-0.46122 -0.0952,-0.71107 -0.40981,-0.71107 -0.26676,0 -0.72761,-0.42582 -1.0237,-0.94619 -0.2961,-0.52035 -0.7516,-0.9474 -1.01235,-0.9493 -0.40899,-0.003 -1.64912,-0.95657 -3.50263,-2.69234 -0.67705,-0.63397 -5.11025,-0.65965 -5.63066,-0.0326 -0.19901,0.23978 -0.74959,0.51641 -1.22369,0.61495 -0.52076,0.10836 -1.07519,0.56173 -1.40044,1.14464 -0.37492,0.67195 -0.77626,0.9648 -1.32239,0.9648 -1.13408,0 -2.40554,0.54835 -2.40554,1.03766 0,0.23182 -0.19598,0.68979 -0.43564,1.01751 -0.42312,0.57798 -0.46164,0.57868 -1.31722,0.0181 -0.85448,-0.56053 -0.89377,-0.56045 -1.31001,0.009 -0.35951,0.49168 -0.5303,0.52385 -1.05058,0.19895 -0.52604,-0.32853 -0.68128,-0.29099 -1.01595,0.24495 -0.23029,0.36873 -0.73744,0.63303 -1.21491,0.63303 -1.04592,0 -1.29418,0.25805 -0.92038,0.95654 0.21161,0.39527 0.16253,0.67002 -0.16896,0.94516 -0.3823,0.31724 -0.46715,0.28708 -0.46715,-0.16588 -3e-5,-0.47001 -0.21672,-0.52958 -1.43145,-0.39274 -1.2678,0.14297 -1.41113,0.0972 -1.25211,-0.4036 0.13054,-0.41132 -0.0952,-0.70242 -0.82942,-1.06867 -0.5548,-0.27677 -1.1783,-0.50281 -1.38544,-0.50281 -0.20711,0 -0.64529,-0.29761 -0.97411,-0.66094 -0.56515,-0.6246 -0.56772,-0.68247 -0.048,-1.06247 0.51625,-0.37748 0.50705,-0.45532 -0.14573,-1.28519 l -0.69454,-0.88367 0.89297,0.22428 c 0.79193,0.19877 0.87427,0.15053 0.72398,-0.42426 -0.12583,-0.48134 -0.0189,-0.64854 0.41497,-0.64854 0.32153,0 0.77023,-0.2613 0.99735,-0.58085 0.22715,-0.31952 0.83489,-0.68572 1.35033,-0.81338 1.74069,-0.43128 3.61558,-1.44918 4.18526,-2.27222 0.31154,-0.45011 0.81513,-1.08898 1.11932,-1.42006 0.30416,-0.33109 0.55319,-0.70888 0.55345,-0.83923 2.9e-4,-0.13037 0.56298,-0.76637 1.25056,-1.41335 0.68762,-0.64698 1.61356,-1.94355 2.05724,-2.881479 0.68127,-1.44005 1.01653,-1.78551 2.15699,-2.22105 0.74276,-0.28367 1.87417,-0.51573 2.51404,-0.51573 0.85976,0 1.25643,-0.17396 1.51982,-0.66611 0.26067,-0.48714 0.45048,-0.57166 0.70641,-0.31574 0.86971,0.86971 1.91969,-0.22224 1.87068,-1.94562 -0.0145,-0.50998 0.17106,-0.97581 0.42789,-1.07435 0.24939,-0.0957 0.4532,-0.36706 0.4532,-0.60307 0,-0.23601 0.28435,-0.58128 0.63201,-0.76739 0.34761,-0.18607 0.63199,-0.62513 0.63199,-0.97565 0,-0.35055 0.31284,-1.18074 0.69506,-1.84485 0.67979,-1.18138 0.68207,-1.2204 0.10128,-1.80093 -0.58068,-0.58046 -0.57703,-0.59684 0.17415,-0.75137 1.13218,-0.23303 2.19003,-1.02418 2.19003,-1.63814 0,-0.29601 0.41649,-0.78447 0.92554,-1.08521 0.50909,-0.30071 0.99137,-0.79824 1.07178,-1.10588 0.10364,-0.39628 0.39976,-0.53225 1.01594,-0.46663 0.66742,0.0712 1.14044,-0.1949 2.03452,-1.14412 0.64071,-0.68024 1.41396,-1.2737 1.71823,-1.31827 0.3043,-0.0446 0.66553,-0.26284 0.80306,-0.48524 0.13745,-0.22241 0.73086,-0.50259 1.31826,-0.62218 0.88527,-0.1804 1.13665,-0.42573 1.46968,-1.43557 0.34251,-1.03856 0.32904,-1.32943 -0.092,-1.97197 -0.27157,-0.41456 -0.41889,-0.87611 -0.3266,-1.02527 0.0922,-0.14922 -0.0423,-0.44566 -0.29919,-0.65887 -0.25681,-0.21321 -0.40069,-0.49501 -0.31989,-0.6258 0.0809,-0.13091 -0.13395,-0.49215 -0.47749,-0.80305 -0.34353,-0.31082 -0.62476,-0.46542 -0.62476,-0.34313 0,0.12221 -0.50398,-0.26747 -1.11982,-0.86559 -1.21542,-1.1805 -2.38668,-1.49607 -4.269,-1.15186 -0.89689,0.164 -1.33205,0.0937 -1.70066,-0.27492 -0.38235,-0.38228 -0.4956,-0.39831 -0.4956,-0.0687 0,0.33177 -0.45802,0.39062 -2.05414,0.26252 -1.86002,-0.1493 -2.05412,-0.10891 -2.05412,0.43046 0,0.38022 -0.22307,0.59583 -0.61703,0.59583 -1.80547,0 -3.06634,1.61825 -2.26291,2.90473 0.44556,0.71345 0.21228,1.20355 -0.57308,1.20355 -0.68718,0 -2.28637,2.30546 -2.39522,3.45301 -0.12388,1.30651 -0.51808,2.54828 -0.82267,2.59106 -0.155,0.0217 -0.4241,0.0754 -0.59791,0.11886 -0.17383,0.0435 -0.42259,0.0986 -0.55292,0.12299 -0.13039,0.0244 -0.0236,0.18661 0.23717,0.36018 0.33311,0.22172 0.0758,0.25568 -0.86453,0.11369 -0.99581,-0.15039 -1.55122,-0.0625 -2.17196,0.34416 -0.68668,0.44988 -0.97801,0.48153 -1.64693,0.17674 -0.71318,-0.32495 -0.88162,-0.28104 -1.37615,0.36173 -0.30988,0.40282 -0.5665,0.88397 -0.57049,1.06919 -0.004,0.18528 -0.55939,0.64735 -1.23458,1.02681 -1.4048,0.78955 -2.37214,2.08083 -2.16162,2.88561 0.0823,0.31471 -0.10829,0.70828 -0.44545,0.91881 -0.43521,0.27187 -0.58962,0.74481 -0.58962,1.80867 0,1.2543 -0.0754,1.41713 -0.58084,1.25677 -0.36105,-0.1146 -0.87212,0.0865 -1.35186,0.53175 -0.68758,0.63809 -0.97655,0.6937 -2.65875,0.51005 -1.13813,-0.12416 -2.04433,-0.0775 -2.28256,0.11782 -0.25876,0.21299 -0.53131,0.21797 -0.79012,0.0155 -1.07625,-0.8421 -4.49583,-0.5276 -4.14703,0.38137 0.0805,0.20967 -0.0735,0.56345 -0.34211,0.78651 -0.26873,0.22296 -0.48834,0.66224 -0.48834,0.97617 0,0.31395 -0.20643,0.77744 -0.45889,1.02991 -0.25302,0.25245 -0.3755,0.54228 -0.27337,0.64441 0.10218,0.10219 -0.0596,0.56056 -0.35965,1.01854 -0.41973,0.64057 -0.5457,1.52306 -0.5457,3.825089 0,2.53773 -0.0721,2.96485 -0.47646,2.80965 -0.28737,-0.11026 -1.24913,0.42739 -2.42054,1.3534 -1.06905,0.84512 -2.12162,1.474 -2.33887,1.39785 -0.21722,-0.0763 -0.39531,0.0177 -0.39531,0.20826 0,0.50373 -3.36894,2.02024 -4.07678,1.83503 -0.58497,-0.15297 -1.92752,1.20661 -1.92752,1.95182 0,0.97221 -0.89987,2.06083 -2.14405,2.59415 -1.21472,0.52062 -1.47288,0.53723 -2.23295,0.14418 -1.02341,-0.52922 -2.41988,-2.14496 -3.11867,-3.60805 -0.2772,-0.58042 -1.07659,-1.43404 -1.77612,-1.89652 -1.18512,-0.78344 -1.49963,-0.83864 -4.61211,-0.81132 -1.83716,0.0161 -3.90911,0.0531 -4.60438,0.0827 -2.26521,0.0961 -2.72405,0.0465 -2.52696,-0.27234 0.10668,-0.1726 -0.0989,-0.31367 -0.45683,-0.31367 -0.3579,0 -0.65061,0.12273 -0.65061,0.27233 0,0.14968 -0.88524,0.35252 -1.96731,0.45062 -1.08207,0.0981 -2.01636,0.32533 -2.07637,0.5054 -0.0612,0.18387 -0.50914,0.24704 -1.02113,0.14469 -0.9516,-0.19032 -1.88389,0.40645 -1.89291,1.21181 -0.004,0.34466 -0.0513,0.34418 -0.27078,-0.002 -0.26828,-0.42316 -1.42758,-0.29463 -4.85965,0.53898 -0.86942,0.2111 -1.18547,0.18741 -1.18547,-0.0899 0,-0.20792 -0.67553,-0.66415 -1.50119,-1.01337 -1.28707,-0.54441 -1.62473,-0.88825 -2.36987,-2.41277 -0.478,-0.97797 -0.86921,-1.91978 -0.86921,-2.0929 0,-0.40259 1.21803,-0.8143 2.10841,-0.71262 0.54713,0.0624 0.83569,-0.24647 1.42057,-1.52135 0.4036,-0.87977 0.87728,-1.59939 1.05265,-1.59939 0.17539,0 0.72173,-0.426809 1.21388,-0.948259 0.50213,-0.532 1.22134,-0.94826 1.63917,-0.94826 0.40958,0 0.82704,-0.13329 0.92761,-0.29611 0.17481,-0.28288 0.49897,-0.47375 3.01479,-1.7787 0.60838,-0.31554 1.62849,-1.11571 2.26653,-1.77767 0.76078,-0.7894 1.33368,-1.13674 1.66449,-1.00976 0.32256,0.12376 0.73856,-0.10442 1.15396,-0.63252 0.70789,-0.89994 1.32492,-1.10996 1.03404,-0.35191 -0.26644,0.69428 0.25043,0.58072 1.47743,-0.32453 0.90144,-0.66499 1.30202,-0.76545 2.39573,-0.60152 1.51484,0.22719 2.79611,-0.28935 2.51767,-1.01492 -0.13341,-0.34764 -0.0239,-0.42073 0.4196,-0.28009 0.43264,0.13731 0.79092,-0.0775 1.28365,-0.76946 0.37595,-0.52796 0.87596,-0.95963 1.11104,-0.95963 0.23511,0 0.51673,-0.40678 0.62579,-0.90382 0.23982,-1.0919 1.43791,-2.27438 3.24943,-3.20807 0.73874,-0.38078 1.34308,-0.81024 1.34308,-0.95447 0,-0.14409 0.30951,-0.30774 0.68781,-0.36328 0.44074,-0.0647 0.92834,-0.57983 1.35702,-1.43351 0.36795,-0.73273 0.98274,-1.66601 1.36631,-2.07429 0.38356,-0.4083 0.69712,-0.9112 0.69712,-1.11724 0,-0.20603 0.14248,-0.37466 0.31626,-0.37466 0.17383,0 0.31575,-0.28872 0.31575,-0.64182 0,-0.80395 0.84492,-1.15508 1.61798,-0.67231 0.79563,0.4969 0.75647,0.52547 1.22629,-0.89814 0.44149,-1.33763 0.61286,-1.47278 1.16531,-0.92035 0.48127,0.4812 0.70953,-0.0465 0.38809,-0.89711 -0.1479,-0.39126 -0.80666,-0.94193 -1.464,-1.22369 -0.65738,-0.28179 -1.41308,-0.61874 -1.67949,-0.74931 -0.84598,-0.41433 -2.62319,-0.72865 -4.30207,-0.76068 -1.07921,-0.0206 -1.83439,-0.21983 -2.24584,-0.59221 -0.56875,-0.51462 -0.65513,-0.51904 -1.04389,-0.0506 -0.38944,0.47013 -0.45503,0.46896 -0.81079,-0.0176 -0.51805,-0.70848 -2.78759,-0.99355 -3.76152,-0.47233 -0.52441,0.28062 -0.88797,0.30765 -1.16737,0.0868 -0.2232,-0.1776 -0.80986,-0.26264 -1.30382,-0.1912 -0.49389,0.0714 -1.08415,-0.0246 -1.31154,-0.21343 -0.25847,-0.21455 -1.04703,-0.2647 -2.10425,-0.13435 -0.93001,0.11466 -1.86894,0.21372 -2.08619,0.22272 -0.2172,0.008 -0.39481,0.17886 -0.39481,0.37931 0,0.48951 -1.34501,1.63029 -2.84324,2.41122 -0.67209,0.35032 -1.39097,0.83968 -1.59679,1.08779 -0.20592,0.2481 -0.92644,0.6 -1.60144,0.78186 -0.67506,0.18177 -1.22732,0.52526 -1.22732,0.76378 0,0.48093 -2.6729,1.89756 -3.09182,1.63866 -0.14554,-0.09 -1.14459,0.25598 -2.22051,0.76843 -1.74885,0.83298 -1.95649,1.03116 -1.95649,1.86965 0,0.72374 -0.21794,1.05032 -0.95393,1.43092 -0.52459,0.27124 -1.33908,0.45258 -1.81023,0.40308 -0.47111,-0.0495 -0.86116,0.0525 -0.86817,0.22634 -0.0239,0.64926 -0.53629,1.10588 -1.24024,1.10588 -0.64804,0 -0.71853,0.13478 -0.65474,1.26814 0.0538,0.95298 -0.0222,1.19047 -0.30591,0.95498 -0.70236,-0.58289 -4.5961,1.05924 -4.5961,1.93838 0,0.29785 -0.14198,0.6294 -0.31575,0.7369 -0.17384,0.10742 -0.31626,0.47137 -0.31626,0.80874 0,0.33738 -0.16642,0.6134 -0.36999,0.6134 -0.20363,0 -0.6354,0.24041 -0.95965,0.53382 -0.34308,0.3105 -1.13784,0.54173 -1.90119,0.55293 -1.18856,0.0177 -1.33466,0.10951 -1.55958,0.97772 -0.24133,0.93166 -1.9667,2.99207 -2.50526,2.99207 -0.14743,0 -0.76576,0.49802 -1.37409,1.10639 -0.60836,0.60837 -1.24201,1.10588 -1.40819,1.10588 -0.37547,0 -2.10757,1.70878 -2.33627,2.30477 -0.0927,0.24151 -0.0494,0.63204 0.0961,0.86764 0.43934,0.710859 -0.23429,1.481419 -1.49963,1.715659 -0.65654,0.12154 -1.62052,0.40923 -2.14199,0.63924 -0.52146,0.23003 -1.34387,0.50648 -1.82779,0.61443 -0.49475,0.11044 -1.0292,0.52448 -1.22113,0.94568 -0.19442,0.42671 -0.71149,0.823 -1.20148,0.92087 -0.64944,0.12992 -0.85322,0.35099 -0.83301,0.90176 0.0208,0.56021 -0.21103,0.79919 -0.99994,1.03146 -0.77229,0.22734 -1.02732,0.48238 -1.02732,1.02733 0,0.41511 -0.19169,0.7245 -0.44855,0.7245 -0.73284,0 -2.38318,1.06344 -2.57556,1.65933 -0.24368,0.75511 -0.76843,0.69928 -0.76843,-0.0816 0,-0.44642 -0.37812,-0.78594 -1.2759,-1.14515 -1.51199,-0.60499 -2.03854,-1.50165 -2.34093,-3.98787 -0.12155,-0.99945 -0.35578,-1.81694 -0.52038,-1.81694 -0.16465,0 -0.20955,-0.35691 -0.10025,-0.79272 0.12398,-0.49401 0.007,-1.08469 -0.31007,-1.5689 -0.2799,-0.427159 -0.5085,-1.261999 -0.5085,-1.855179 0,-0.59321 -0.21365,-1.2554 -0.4744,-1.47174 -0.26059,-0.21637 -0.47387,-0.782 -0.47387,-1.25677 0,-0.47668 -0.34448,-1.23542 -0.76946,-1.69396 -0.42328,-0.45674 -0.8146,-1.29535 -0.86918,-1.86345 -0.0547,-0.56808 -0.27731,-1.04989 -0.49456,-1.07229 -0.21728,-0.0217 -0.52771,-0.0567 -0.68987,-0.0791 -0.16211,-0.0217 -0.39093,-0.34223 -0.50851,-0.71262 -0.27601,-0.86964 -1.7163,-2.48719 -2.21485,-2.48719 -0.21198,0 -0.61857,-0.35558 -0.90329,-0.79013 -0.28474,-0.43453 -0.73207,-0.79013 -0.99425,-0.79013 -0.26217,0 -0.55877,-0.21314 -0.65889,-0.47387 -0.10004,-0.26063 -0.37624,-0.47388 -0.61391,-0.47388 -0.50798,0 -1.39629,-1.58871 -1.39629,-2.497 0,-0.34764 -0.20418,-0.74672 -0.45373,-0.88625 -0.24951,-0.13964 -0.57171,-0.96399 -0.7157,-1.83245 -0.1963,-1.18357 -0.43834,-1.6572 -0.96637,-1.89032 -0.47691,-0.21055 -0.6469,-0.4914 -0.5271,-0.8692 0.11092,-0.34934 0.0142,-0.55811 -0.25889,-0.55811 -0.23993,0 -0.84503,-0.42629 -1.34462,-0.94774 -0.49958,-0.52145 -1.14429,-0.94826 -1.43248,-0.94826 -0.28815,0 -0.77173,-0.27429 -1.07487,-0.60927 -0.30316,-0.33496 -1.14331,-0.70387 -1.86655,-0.8201 -0.72327,-0.11628 -1.61695,-0.40262 -1.98591,-0.63614 -0.36899,-0.23269 -0.97396,-0.34555 -1.34464,-0.24856 -0.37068,0.0969 -0.90657,-0.0164 -1.19063,-0.25219 -1.32283,-1.09788 -5.23396,-1.53547 -6.74428,-0.75447 -0.50181,0.25954 -1.13101,0.38783 -1.39837,0.28525 -0.49943,-0.19164 -2.58953,0.89187 -3.2339,1.67639 -0.20193,0.24584 -1.16602,0.50164 -2.18334,0.5798 -1.00187,0.0769 -2.14979,0.35481 -2.55074,0.61754 -0.40095,0.26266 -0.93086,0.47801 -1.17772,0.47801 -0.24683,0 -0.67839,0.35032 -0.95911,0.77876 -0.28072,0.42844 -0.80844,0.93842 -1.17253,1.13326 -0.59092,0.31626 -0.63947,0.28355 -0.45267,-0.30489 0.1229,-0.38718 0.07,-0.65939 -0.12817,-0.65939 -0.1855,0 -0.33745,0.28577 -0.33745,0.6351 0,0.34936 -0.3058,0.88298 -0.67955,1.18546 -1.40629,1.13811 -1.86561,1.68883 -1.67122,2.0035 0.34322,0.55536 -0.80804,1.49293 -2.10166,1.71152 -0.6798,0.11485 -1.23611,0.34964 -1.23611,0.52142 0,0.17199 -0.50496,0.26857 -1.12189,0.21549 -0.61695,-0.0532 -1.22126,0.0532 -1.34307,0.23616 -0.12179,0.18288 -0.44768,0.4156 -0.72451,0.51728 -0.27678,0.10172 -0.74991,0.70421 -1.05111,1.33894 -0.46969,0.98977 -0.61759,1.0961 -1.03921,0.7462 -0.41809,-0.34698 -0.64555,-0.22989 -1.52238,0.78445 -1.17438,1.35855 -1.57996,3.02954 -0.86299,3.55379 0.39018,0.2853 0.33006,0.42689 -0.37415,0.88832 -0.4609,0.30201 -0.96906,0.89457 -1.12964,1.31671 -0.21339,0.56085 -0.44341,0.71087 -0.85524,0.55656 -0.45214,-0.1695 -0.4948,-0.12173 -0.21704,0.24288 0.19019,0.2498 0.31348,1.37855 0.27387,2.50837 -0.0396,1.12982 0.0334,2.1966 0.16174,2.3704 0.44538,0.60306 0.57148,1.70847 0.21188,1.85673 -0.25836,0.1065 -0.2631,0.22375 -0.0176,0.41031 0.43077,0.32714 0.77804,1.635969 0.48266,1.818499 -0.12094,0.0748 -0.24181,1.63445 -0.26818,3.46542 -0.0412,2.84471 -0.14545,3.46008 -0.71523,4.23075 -0.44381,0.60024 -0.61439,1.19153 -0.51003,1.76733 0.0863,0.47583 0.25572,2.2081 0.37621,3.8499 0.16801,2.28884 0.12713,2.98534 -0.17468,2.98534 -0.25374,0 -0.32827,0.25995 -0.20979,0.73174 0.10411,0.41482 -0.0154,1.01687 -0.27649,1.38958 -0.25347,0.36174 -0.43325,1.20565 -0.39944,1.87534 0.0338,0.66969 -0.0552,1.92866 -0.19741,2.79776 -0.29173,1.78152 -0.2958,6.59517 -0.007,7.506 0.111,0.34974 -0.0315,0.84267 -0.3426,1.18649 -0.38307,0.42329 -0.47184,0.86243 -0.31732,1.5658 0.23704,1.07916 -0.66053,4.43745 -1.18597,4.43745 -0.17854,0 -0.23138,0.40657 -0.12298,0.94827 0.15949,0.79739 0.0904,0.94826 -0.4346,0.94826 -0.34332,0 -0.62426,0.13532 -0.62426,0.30127 0,0.16592 -0.3702,0.67253 -0.8232,1.12552 -0.92268,0.92249 -0.83772,1.33571 0.16434,0.79943 0.78597,-0.4206 0.78904,-0.40244 0.18862,1.03456 -0.41124,0.98275 -0.41291,1.18391 -0.0134,1.58337 0.30652,0.30651 0.47572,1.24353 0.51263,2.83755 0.0491,2.11912 0.12726,2.39853 0.71159,2.55127 l 0.65628,0.17156 -0.69866,0.74363 c -0.38426,0.40899 -0.69866,1.12537 -0.69866,1.59215 0,0.4668 -0.14195,0.84904 -0.31576,0.84904 -0.39428,0 -0.42015,1.4787 -0.03,1.71979 0.31456,0.1944 0.10408,1.38571 -0.34727,1.96526 -0.17468,0.22423 -0.15645,0.44634 0.046,0.57154 0.42204,0.26062 0.43299,1.6478 0.0155,1.90582 -0.46538,0.28757 -0.38476,1.32853 0.11782,1.52136 0.23876,0.0917 0.52374,0.64026 0.63301,1.21905 0.14737,0.77994 0.65754,1.42021 1.97043,2.47427 0.97425,0.78218 2.18062,1.63529 2.68097,1.896 0.50038,0.26074 0.99248,0.72315 1.09347,1.02733 0.10097,0.30418 0.31586,0.55294 0.47803,0.55294 0.16208,0 0.30297,0.24875 0.31419,0.55293 0.0107,0.30419 0.69061,1.61971 1.51101,2.92334 1.37742,2.18864 1.58189,2.37811 2.66702,2.46858 0.98571,0.0823 1.17512,-4.8e-4 1.17512,-0.51418 0,-0.33683 0.21368,-0.78979 0.4744,-1.00613 0.26086,-0.21638 0.47387,-0.58159 0.47387,-0.81184 0,-0.23024 0.34311,-1.06385 0.76221,-1.85208 0.42683,-0.80293 0.68842,-1.71445 0.59481,-2.07275 -0.0921,-0.35173 0.004,-0.84542 0.21291,-1.09761 0.21027,-0.2522 0.2957,-0.59596 0.19222,-0.76326 -0.10345,-0.16743 0.0118,-0.5042 0.2558,-0.74827 0.50559,-0.50559 0.34113,-1.9358 -0.28215,-2.45308 -0.22423,-0.18553 -0.32779,-0.63874 -0.23151,-1.00717 0.10792,-0.41298 0.0512,-0.59344 -0.1483,-0.47026 -0.74702,0.46167 -2.42424,-2.62815 -2.13683,-3.93671 0.11631,-0.52951 -0.0347,-1.31538 -0.3979,-2.06706 -0.51623,-1.06863 -0.53851,-1.37644 -0.18553,-2.59571 0.22042,-0.76095 0.32443,-1.50698 0.23151,-1.65726 -0.0929,-0.15041 0.0531,-0.27337 0.32401,-0.27337 0.27101,0 0.49249,-0.14194 0.49249,-0.31574 0,-0.17384 -0.16009,-0.31626 -0.35604,-0.31626 -0.23226,0 -0.29591,-0.41263 -0.18191,-1.18494 0.0961,-0.65182 0.0677,-1.84938 -0.0636,-2.66082 -0.17838,-1.10366 -0.1089,-1.74141 0.27597,-2.53266 0.31805,-0.65415 0.46598,-1.56468 0.38756,-2.38642 -0.0887,-0.93031 0.0253,-1.48052 0.37983,-1.83503 0.27848,-0.27861 0.50644,-0.35428 0.50644,-0.16795 0,0.18631 0.126,0.33848 0.28006,0.33848 0.34192,0 0.65106,-1.86921 0.34005,-2.06137 -0.45723,-0.28259 -0.0803,-3.39254 0.44701,-3.68763 0.2821,-0.15787 0.51313,-0.49994 0.51313,-0.76068 0,-0.73873 0.94258,-2.37993 1.25574,-2.18643 0.15441,0.0955 0.37515,0.0205 0.49094,-0.16691 0.33075,-0.53529 1.70251,-0.95244 2.48512,-0.75603 0.4345,0.10905 0.85815,0.58225 1.08675,1.2144 0.51596,1.42686 1.87881,2.54351 3.21167,2.63085 0.60714,0.0398 1.14456,0.19368 1.19425,0.34261 0.0496,0.14884 1.48947,0.21579 3.19982,0.14883 l 3.10989,-0.12196 2.43808,2.30736 c 1.34096,1.269 2.624,2.73364 2.85099,3.25509 0.22698,0.52148 1.2193,1.73066 2.20504,2.68666 0.9857,0.956 2.25163,2.18197 2.81326,2.72438 0.56166,0.54242 1.58408,1.84659 2.27221,2.89853 0.68818,1.05195 1.56438,2.08648 1.94718,2.29857 0.38277,0.2122 0.84042,0.79908 1.01647,1.30431 0.17611,0.50524 0.96467,1.67364 1.75287,2.59623 0.78819,0.92258 1.43348,1.82818 1.43348,2.01228 0,0.18405 0.16256,0.38846 0.36124,0.45475 0.27085,0.0903 0.27059,0.28987 -10e-4,0.79737 -0.23736,0.44378 -0.25331,0.74448 -0.0455,0.87281 0.17422,0.10773 0.31728,0.54747 0.31728,0.97721 0,0.42973 0.21699,0.86467 0.48215,0.96634 0.36378,0.13962 0.39582,0.2888 0.13074,0.60824 -0.43493,0.52404 -0.1256,1.08313 0.59944,1.08313 0.83505,0 1.9477,0.91274 1.9477,1.59784 0,0.36913 0.22106,0.61887 0.55345,0.62787 0.95811,0.0232 1.86823,1.89377 1.92752,3.96151 0.0756,2.63448 0.49623,3.46438 2.16474,4.27209 0.78013,0.37765 1.74832,0.99292 2.15181,1.36685 l 0.002,-0.003 c 0.97216,0.90098 2.02144,0.88731 2.25155,-0.0295 0.0979,-0.39016 0.37748,-0.87469 0.62116,-1.07693 0.52822,-0.43836 0.5987,-1.0559 0.0842,-0.73794 -0.19735,0.12197 -0.0651,-0.18965 0.29403,-0.69246 0.73213,-1.02496 1.51583,-5.26965 1.00513,-5.44412 -0.47416,-0.16203 -0.36545,-1.00045 0.1297,-1.00045 0.73019,0 0.95821,-2.61979 0.33332,-3.82819 -0.36137,-0.69874 -0.47959,-1.49565 -0.37881,-2.54507 0.0809,-0.84032 0.0349,-1.52807 -0.10128,-1.52807 -0.13613,0 -0.29279,-0.31999 -0.3483,-0.71107 -0.0697,-0.49058 -0.28141,-0.68009 -0.68315,-0.61133 -0.32023,0.0548 -0.77782,-0.15838 -1.01701,-0.47387 -0.64336,-0.84852 -0.54668,-1.22859 0.15195,-0.59635 0.58153,0.52627 0.63019,0.51531 1.14256,-0.26665 0.29432,-0.4492 0.73234,-0.817 0.97305,-0.817 0.24064,0 0.4377,-0.26795 0.4377,-0.59532 0,-0.32942 0.28221,-0.66878 0.63201,-0.76015 0.63537,-0.16616 0.90633,-1.17254 0.31576,-1.17254 -0.17381,0 -0.31576,-0.12659 -0.31576,-0.28112 0,-0.1544 0.22876,-0.26139 0.50851,-0.2372 0.27971,0.0241 0.80507,-0.34657 1.16736,-0.82424 0.63667,-0.83949 0.63916,-0.88283 0.0755,-1.29501 -0.40404,-0.2954 -0.47122,-0.49525 -0.21912,-0.65112 0.44193,-0.2731 0.48723,-1.45211 0.0558,-1.45211 -0.17065,0 -0.22696,-0.40413 -0.12663,-0.9064 0.13378,-0.66871 0.01,-1.06674 -0.4723,-1.51567 -0.5687,-0.52976 -0.63508,-0.88553 -0.51213,-2.74661 0.0777,-1.17606 0.22243,-2.26947 0.32144,-2.42982 0.38947,-0.63083 0.37999,-5.13527 -0.0129,-5.89267 -0.36822,-0.70955 -0.29065,-2.23624 0.094,-1.85156 0.0923,0.0924 0.36015,0.008 0.59531,-0.18707 0.35515,-0.29471 0.3379,-0.42042 -0.10128,-0.74156 -0.36991,-0.2705 -0.45085,-0.56668 -0.26924,-0.98547 0.14266,-0.32931 0.22633,-0.73767 0.18553,-0.90744 -0.22664,-0.94482 -0.24125,-4.99452 -0.0222,-6.19187 0.28197,-1.54195 1.81113,-3.13882 3.00604,-3.13882 0.36499,0 1.27153,-0.29355 2.01485,-0.65268 0.7433,-0.35914 1.7715,-0.60875 2.28463,-0.555 0.9978,0.10468 1.60245,-0.47199 1.30585,-1.24488 -0.12211,-0.31767 0.006,-0.41936 0.42426,-0.33539 0.34885,0.07 0.83494,-0.17452 1.16377,-0.58549 0.31057,-0.38815 0.73729,-0.64064 0.94824,-0.56069 0.2109,0.0799 0.6505,-0.25426 0.97668,-0.74259 0.61627,-0.92249 1.47323,-1.50696 4.14705,-2.82722 0.86911,-0.42913 1.93585,-0.95912 2.37041,-1.1777 2.05655,-1.03439 6.52901,-0.64903 7.61193,0.65577 0.2015,0.24284 0.54737,0.44132 0.76843,0.44132 0.22106,0 0.86151,0.42929 1.42316,0.95395 0.70096,0.65484 1.13665,0.85787 1.38957,0.64802 0.24998,-0.20746 0.47852,-0.1295 0.71107,0.24288 0.24931,0.39918 1.15048,0.66193 3.30522,0.96324 2.99742,0.41915 5.01677,1.07743 5.01677,1.63505 0,0.17267 0.51445,0.22928 1.18544,0.13074 0.65185,-0.0956 1.82491,-0.0554 2.6071,0.0899 0.88519,0.16463 1.76874,0.1399 2.34042,-0.0661 0.63995,-0.23057 0.95337,-0.23061 1.03248,0 0.16182,0.47142 2.33051,0.15577 2.53164,-0.36845 0.0922,-0.24025 0.30319,-0.43667 0.46869,-0.43667 0.16549,0 0.22219,0.12702 0.1261,0.28267 -0.20492,0.33158 0.53194,0.66094 1.50638,0.67438 1.04523,0.0137 3.37137,2.2329 3.37137,3.21634 0,0.44857 -0.21558,0.89842 -0.47906,0.99942 -0.37258,0.14291 -0.4332,0.48439 -0.27283,1.53479 0.11337,0.74313 0.34327,1.52483 0.51054,1.73736 0.20486,0.26018 0.13914,0.55127 -0.20154,0.89194 -0.33536,0.33529 -0.43812,0.77582 -0.30488,1.30638 0.11039,0.44015 0.0167,1.56744 -0.20825,2.50527 -0.39211,1.6346 -0.45215,1.70481 -1.44902,1.70481 -0.57195,0 -1.15334,0.19324 -1.29243,0.42891 -0.13899,0.23566 -0.76989,0.67037 -1.40145,0.96635 -0.68331,0.32024 -1.57919,1.17543 -2.21229,2.1115 -0.74713,1.10471 -1.22824,1.53109 -1.61641,1.43299 -0.30401,-0.077 -0.63765,-0.002 -0.74158,0.16588 -0.10398,0.16822 -0.53623,0.43768 -0.96015,0.59893 -0.72307,0.27493 -0.75747,0.39595 -0.56171,1.95595 0.1147,0.91448 0.20765,1.73366 0.2067,1.82056 -0.009,0.73757 -0.15767,0.94827 -0.67025,0.94827 -0.75475,0 -1.37054,0.73132 -1.24333,1.47742 0.0683,0.40056 -0.0704,0.5482 -0.45473,0.4837 -0.32804,-0.0551 -0.55296,0.10596 -0.55296,0.39532 0,0.27984 -0.27374,0.48783 -0.64182,0.48783 -0.35309,0 -0.69268,0.17756 -0.75446,0.39481 -0.76126,2.67671 -1.21119,3.86509 -1.57406,4.1553 -0.43934,0.35139 -2.08619,6.16716 -2.08619,7.36751 0,0.35578 -0.27982,0.84156 -0.62166,1.08003 -0.34185,0.23847 -0.68797,0.82585 -0.76947,1.30535 -0.20859,1.2276 -0.48799,2.08273 -1.19684,3.66282 -0.33901,0.75574 -0.63656,1.64442 -0.66146,1.97508 -0.0249,0.33065 -0.15719,0.60151 -0.29403,0.60151 -0.13679,0 -0.24908,0.25184 -0.24908,0.55966 0,0.34396 0.51763,0.81449 1.34308,1.22111 6.25142,3.07961 5.99456,2.99034 7.67292,2.67064 2.52791,-0.48152 3.23022,-0.91271 2.36162,-1.44952 -0.56272,-0.34777 -0.33465,-0.83814 0.29659,-0.63769 0.43755,0.13885 0.72216,-0.0138 0.99531,-0.53227 0.2104,-0.39943 0.53891,-0.82846 0.73017,-0.95343 0.25025,-0.16356 0.24096,-0.40007 -0.0331,-0.84233 -0.30594,-0.49376 -0.29112,-0.68896 0.0755,-0.99321 0.25101,-0.20834 0.37444,-0.51208 0.27387,-0.6749 -0.10065,-0.16287 0.0513,-0.79063 0.33798,-1.39475 0.28662,-0.60413 0.43262,-1.37827 0.32401,-1.7203 -0.14346,-0.45214 -0.0763,-0.57551 0.24648,-0.45166 0.55026,0.21113 1.08183,-0.40181 1.22629,-1.41438 0.11949,-0.83755 1.57295,-1.85941 2.69804,-1.89704 0.81322,-0.0271 1.21685,-0.55958 1.10173,-1.45263 -0.10131,-0.78545 1.35477,-2.20427 2.55127,-2.48615 0.54911,-0.12936 0.86868,-0.41375 0.86868,-0.77205 0,-0.35471 0.41449,-0.72948 1.1064,-1.00097 0.89133,-0.34974 1.10586,-0.60286 1.10586,-1.30431 0,-1.04866 0.48535,-1.42336 1.13998,-0.88005 0.41495,0.34441 0.45149,0.28422 0.26874,-0.4439 -0.15335,-0.61095 -0.076,-0.89388 0.28112,-1.03095 0.29141,-0.1118 0.57864,-0.76457 0.70382,-1.59887 0.18475,-1.23196 0.32617,-1.43262 1.12138,-1.59163 0.50043,-0.10009 0.9095,-0.36253 0.9095,-0.58291 0,-0.44011 0.76163,-0.86297 1.72496,-0.9586 0.3403,-0.0337 0.67222,-0.2218 0.73742,-0.41754 0.0653,-0.19593 0.44145,-0.35605 0.83613,-0.35605 0.913,0 2.47745,-1.43338 2.53524,-2.32286 0.0243,-0.37366 0.23823,-1.03368 0.47543,-1.46658 0.70212,-1.28153 0.6877,-2.21536 -0.0346,-2.21536 -0.9144,0 -0.42022,-0.54853 0.71985,-0.79892 1.1135,-0.24459 3.16711,-2.18337 2.93989,-2.77554 -0.0824,-0.21458 0.43063,-1.01283 1.13998,-1.77354 1.32543,-1.42139 1.35364,-1.43115 4.88548,-1.70635 0.69527,-0.0542 1.50495,0.018 1.79885,0.16071 0.37058,0.17977 0.66082,0.0808 0.94776,-0.3235 0.22755,-0.32066 0.76952,-0.76902 1.20407,-0.9958 0.43452,-0.22678 0.90374,-0.60492 1.04283,-0.84026 0.13898,-0.23531 0.39658,-0.42788 0.57309,-0.42788 0.17639,0 0.68003,-0.4263 1.11879,-0.94775 0.43878,-0.52147 0.99478,-0.94826 1.23557,-0.94826 0.24083,0 0.64545,-0.40128 0.89919,-0.89193 0.25371,-0.49066 0.66918,-1.06492 0.92345,-1.27589 0.25421,-0.21102 0.3932,-0.6486 0.3085,-0.97255 -0.12102,-0.46287 0.0722,-0.63402 0.90176,-0.79841 0.58065,-0.11504 1.4543,-0.36274 1.94198,-0.55087 0.64188,-0.24725 0.98383,-0.24505 1.23767,0.009 0.25686,0.25686 0.44522,0.22136 0.70382,-0.13229 0.50461,-0.69012 4.0916,-0.89657 4.61523,-0.26562 0.2118,0.2552 1.04114,0.78769 1.8433,1.18339 1.38033,0.68098 1.67876,0.7071 5.5671,0.48627 2.25965,-0.12833 4.35822,-0.15986 4.66328,-0.0703 0.32184,0.0946 0.63127,-0.0372 0.73742,-0.31367 0.10057,-0.2621 0.63299,-0.57194 1.1834,-0.68885 0.55039,-0.11688 1.21412,-0.38348 1.47484,-0.59221 0.26072,-0.20877 1.07728,-0.64093 1.81489,-0.96015 1.9041,-0.82409 4.65214,-0.34776 7.02696,1.2175 0.95202,0.62749 1.83523,1.1405 1.96265,1.1405 0.45567,0 1.02122,2.55917 0.68731,3.10989 -0.17515,0.2887 -0.35174,1.23569 -0.39222,2.10478 -0.0407,0.8691 -0.20791,1.71544 -0.37208,1.8805 -0.16417,0.16513 -0.29816,0.70563 -0.29816,1.20096 0,0.49531 -0.2195,1.32435 -0.48731,1.84227 -0.26773,0.51793 -0.40188,1.07898 -0.29818,1.24695 0.10382,0.16797 -0.17474,0.47088 -0.61908,0.67334 -0.44434,0.20246 -0.80772,0.48753 -0.80772,0.63356 0,0.14593 -0.3665,0.26561 -0.81441,0.26561 -0.92535,0 -2.30719,1.24088 -3.10989,2.79311 -0.40169,0.77665 -0.68045,0.98425 -1.12964,0.84181 -0.40412,-0.12826 -0.70686,0.0169 -0.93898,0.45062 -0.52752,0.98565 -1.46642,1.3764 -2.27218,0.94516 -0.55259,-0.29571 -0.64815,-0.28159 -0.5111,0.0754 0.22082,0.57542 -0.79952,2.65764 -1.25677,2.5647 -0.44299,-0.09 -2.29235,2.20788 -2.29235,2.84841 0,0.26031 -0.5656,0.6996 -1.25677,0.97617 -1.31323,0.52543 -1.59017,1.06336 -1.48468,2.88406 0.0448,0.7721 -0.0819,0.96725 -0.68162,1.05213 -0.99682,0.14121 -1.81245,1.01544 -1.69757,1.81953 0.0519,0.36284 -0.12568,0.84279 -0.39481,1.06608 -0.26916,0.22329 -0.48937,0.29525 -0.48937,0.1602 0,-0.13514 -0.28438,0.012 -0.63199,0.32659 -0.56922,0.51516 -0.68741,0.5238 -1.18546,0.0899 -0.68506,-0.59677 -1.34308,-0.39566 -1.34308,0.41031 0,0.33314 -0.191,0.60565 -0.42476,0.60565 -0.23382,0 -0.68276,0.28437 -0.99738,0.632 -0.31459,0.34766 -0.74234,0.632 -0.95083,0.632 -0.20857,0 -1.07315,0.67424 -1.92082,1.4981 -1.13382,1.10187 -1.40475,1.52431 -1.02577,1.59732 0.47289,0.0912 0.47398,0.20673 0.0155,1.42524 -0.27445,0.72937 -0.68701,1.5509 -0.91673,1.82573 -0.22981,0.27482 -0.38187,0.56198 -0.33795,0.63768 0.0438,0.0757 -0.0556,0.0284 -0.22066,-0.1049 -0.51766,-0.41775 -0.7742,-0.27234 -1.2945,0.73381 -0.78306,1.51424 -3.12261,3.76462 -3.91398,3.76462 -0.79317,0 -1.60198,0.68246 -1.60198,1.35186 0,0.66299 1.83015,3.07268 2.33374,3.07268 0.23833,0 0.61904,0.22414 0.84645,0.49816 0.28101,0.33928 0.72366,0.44443 1.38181,0.33021 0.53261,-0.0925 1.60454,-0.0457 2.38178,0.10387 1.20902,0.23283 1.47265,0.1873 1.82573,-0.31677 0.22696,-0.32414 0.61058,-0.51337 0.85215,-0.42065 0.25259,0.0969 0.95387,-0.37836 1.65055,-1.11879 0.66622,-0.70806 1.32365,-1.28801 1.4614,-1.2883 0.56687,-10e-4 3.72104,-3.03459 3.44371,-3.31194 -0.11885,-0.11782 0.16094,-0.12044 0.62219,-0.005 0.67506,0.16942 0.87958,0.0823 1.04799,-0.44804 0.20032,-0.63114 0.50946,-0.78995 1.33533,-0.68626 0.2082,0.0261 0.53758,-0.24939 0.73173,-0.61236 0.19425,-0.36298 0.5924,-0.76356 0.88521,-0.88987 1.22338,-0.52734 2.58287,-1.49828 2.58488,-1.8464 0.001,-0.20555 0.29009,-0.46547 0.64233,-0.57723 0.35226,-0.1118 0.88537,-0.58375 1.18493,-1.04851 0.64918,-1.00722 1.29342,-1.83552 2.04587,-2.63085 0.30419,-0.32152 0.55345,-0.7976 0.55345,-1.05833 0,-0.2606 0.26689,-0.47439 0.59325,-0.47439 0.76563,0 1.21177,-0.55803 1.94355,-2.43086 0.4113,-1.05253 0.59756,-1.29363 0.60875,-0.78497 0.0106,0.52465 0.17222,0.70394 0.5674,0.62891 0.39217,-0.0745 0.60873,-0.51757 0.74311,-1.52394 0.10422,-0.78071 0.21048,-1.1708 0.2367,-0.86662 0.0682,0.79498 0.89754,0.68111 1.4769,-0.20308 0.34557,-0.52739 0.91229,-0.81925 1.87275,-0.96325 1.10286,-0.1654 1.4152,-0.35676 1.56684,-0.96067 0.10408,-0.41482 0.50358,-0.85411 0.88831,-0.97617 0.38473,-0.1221 1.39049,-0.87797 2.23501,-1.68 0.8445,-0.80202 1.77422,-1.53741 2.0655,-1.63349 1.24193,-0.40983 3.53158,-1.61398 3.53158,-1.85725 0,-0.14542 0.30797,-0.34506 0.68418,-0.44338 0.55174,-0.14428 0.61175,-0.2658 0.30954,-0.62994 -0.29776,-0.35878 -0.19976,-0.71918 0.47802,-1.75441 0.46911,-0.71648 1.04431,-1.30277 1.27847,-1.30277 0.23415,0 0.54861,-0.31998 0.69866,-0.71107 0.25072,-0.65383 2.32322,-1.90647 4.53099,-2.73833 0.47799,-0.18011 0.86921,-0.53632 0.86921,-0.79168 0,-0.25536 0.49728,-1.00559 1.10484,-1.66708 0.60754,-0.66152 1.1049,-1.33456 1.10586,-1.49604 0.002,-0.47405 2.2021,-2.35177 2.39315,-2.04277 0.29213,0.4727 0.76108,0.31419 0.5669,-0.19172 -0.10007,-0.26082 -0.41566,-0.4797 -0.70125,-0.4842 -0.46543,-0.009 -0.46162,-0.0537 0.0341,-0.42995 0.30419,-0.2309 0.55293,-0.65289 0.55293,-0.93793 0,-0.33883 0.26728,-0.51831 0.77152,-0.51831 0.42429,0 0.86725,-0.15463 0.98393,-0.34365 0.11679,-0.18899 0.47522,-0.2749 0.79685,-0.19069 0.32163,0.0841 0.7498,-0.0456 0.95136,-0.28835 0.20151,-0.24278 0.26019,-0.44132 0.13073,-0.44132 -0.12938,0 -0.0595,-0.21174 0.15505,-0.47025 0.21571,-0.25852 0.30771,-0.68534 0.20669,-0.94827 -0.12549,-0.32691 0.0132,-0.478 0.43873,-0.478 0.34219,0 0.6222,-0.15113 0.6222,-0.3359 0,-0.18484 0.31996,-0.2911 0.71107,-0.23668 0.58798,0.0818 0.70868,-0.0485 0.69969,-0.75292 -0.009,-0.68199 0.22317,-0.95774 1.1648,-1.38235 0.77086,-0.34828 1.53702,-0.46073 2.22364,-0.32814 0.57605,0.11113 1.22285,0.22361 1.43764,0.24959 0.69016,0.0838 0.69381,0.13624 0.71622,8.31732 0.002,1.0429 0.009,2.48911 0.0134,3.21376 0.006,1.0149 -0.15541,1.43209 -0.70487,1.81695 -0.3923,0.2748 -0.58867,0.49971 -0.43614,0.49971 0.15253,0 0.0416,0.26039 -0.24651,0.57877 -0.28816,0.31841 -0.50396,0.92274 -0.47956,1.34307 0.0245,0.42036 -0.12039,1.17259 -0.32195,1.67174 -0.26016,0.64429 -0.26881,1.0253 -0.0299,1.31309 0.18492,0.22296 0.24157,0.78342 0.12557,1.24541 -0.13753,0.54789 -0.0159,1.20122 0.34933,1.87947 0.54687,1.01566 0.54367,1.0557 -0.11938,1.71876 -0.37332,0.37332 -0.67852,0.81835 -0.67852,0.98857 0,0.1703 -0.5687,0.59977 -1.26399,0.95446 -0.93171,0.47533 -1.26453,0.83963 -1.26453,1.38545 0,0.65278 -0.14922,0.74052 -1.25883,0.74052 -0.69236,0 -1.47233,0.17727 -1.73374,0.39429 -0.26143,0.21792 -0.70114,0.30828 -0.97668,0.20257 -0.79158,-0.30376 -1.68114,0.36081 -1.96993,1.47175 -0.15983,0.61486 -0.46776,1.02151 -0.77512,1.02371 -0.28041,0.002 -0.6145,0.10908 -0.74261,0.23719 -0.12814,0.12817 -0.55541,0.23306 -0.9493,0.23306 -1.39742,0 -1.26375,1.81047 0.26977,3.65197 0.42606,0.51167 1.0318,1.47702 1.34565,2.14509 0.31379,0.6681 0.93908,1.37653 1.38956,1.57407 0.45048,0.19746 0.89032,0.44094 0.97721,0.54105 0.0869,0.10013 1.08194,0.51319 2.21176,0.91777 1.12983,0.40461 2.335,0.92984 2.67788,1.16737 0.76824,0.53216 3.69474,0.56957 4.21057,0.0538 0.2934,-0.29339 0.47681,-0.24329 0.81908,0.22479 0.36047,0.49296 0.52788,0.53124 0.91519,0.20981 0.26063,-0.21622 1.02272,-0.36856 1.69344,-0.339 0.67074,0.0297 2.25019,-0.22497 3.51038,-0.56586 1.2602,-0.34185 2.29134,-0.50329 2.29134,-0.36018 0,0.35103 1.81407,0.33305 2.03243,-0.0202 0.28497,-0.46102 2.43918,-0.74718 2.81275,-0.37362 0.18593,0.18594 0.98472,0.34122 1.7756,0.34572 0.79087,0.004 2.00687,0.15385 2.70216,0.33279 0.69527,0.17879 1.47765,0.35331 1.7384,0.38758 0.26072,0.0342 0.65581,0.23353 0.87798,0.44338 0.22232,0.21097 0.5916,0.31 0.8201,0.22221 0.37957,-0.14564 1.54257,0.0198 6.04459,0.85938 0.86911,0.16208 2.43338,0.42653 3.47628,0.58756 1.04292,0.16096 2.60768,0.43058 3.47679,0.59945 0.90272,0.17536 1.70123,0.18889 1.86293,0.031 0.1557,-0.15184 0.66893,-0.19919 1.1405,-0.1049 0.7253,0.14506 0.96466,-0.002 1.55236,-0.9524 0.71957,-1.16431 0.62365,-1.84059 -0.37775,-2.67167 -0.37352,-0.31034 -0.37359,-0.67733 0,-2.4939 0.38903,-1.89192 0.38323,-2.17049 -0.0527,-2.48926 -0.27003,-0.19742 -0.49093,-0.79724 -0.49093,-1.33273 0,-0.5355 -0.13619,-1.05815 -0.30282,-1.16117 -0.16674,-0.10305 -1.26035,-0.27622 -2.42983,-0.38551 -2.15012,-0.20078 -5.89152,-1.32536 -6.52828,-1.96215 -0.19048,-0.19039 -0.64815,-0.34623 -1.01699,-0.34623 -0.6036,0 -1.42021,-0.22035 -4.824,-1.30018 -0.57123,-0.18123 -1.94707,-0.37427 -3.05769,-0.42892 -2.34532,-0.11543 -5.25708,-1.33375 -6.03891,-2.52697 -0.37382,-0.57032 -0.46715,-1.32282 -0.37156,-2.98535 0.0743,-1.29338 -0.002,-2.26623 -0.18293,-2.32647 -0.17075,-0.0569 -0.0581,-0.48901 0.25063,-0.96015 0.37638,-0.57527 0.49935,-1.16714 0.37259,-1.80144 -0.10403,-0.5195 -0.0413,-1.33231 0.13901,-1.80661 0.22806,-0.60284 0.22539,-0.89646 -0.009,-0.97462 -0.444,-0.14781 -0.43123,-1.41776 0.0181,-1.86707 0.39995,-0.39995 0.95718,-3.94478 0.95705,-6.08852 -3e-5,-0.77992 0.14799,-1.50962 0.32918,-1.6216 0.22509,-0.13839 0.22787,-0.38624 0.0109,-0.77412 -0.21507,-0.38597 -0.2122,-0.80277 0.009,-1.28881 0.2495,-0.54747 0.20743,-0.90145 -0.17673,-1.48776 -0.2772,-0.42311 -0.44079,-1.11884 -0.36329,-1.54616 0.0922,-0.50832 -0.0768,-0.97381 -0.48885,-1.34669 -0.34639,-0.31345 -0.62994,-0.93067 -0.62994,-1.37149 0,-0.76223 0.022,-0.77203 0.44028,-0.19999 0.3737,0.5112 0.51593,0.53822 0.94775,0.17984 0.27952,-0.232 0.5085,-0.61788 0.5085,-0.85731 0,-0.2394 0.28437,-0.43512 0.632,-0.43512 0.34763,0 0.632,-0.14247 0.632,-0.31626 0,-0.17382 -0.21313,-0.31626 -0.47387,-0.31626 -0.26082,0 -0.47439,-0.21314 -0.47439,-0.47387 0,-0.26063 0.21602,-0.47388 0.48007,-0.47388 0.35434,0 0.42841,-0.20709 0.28216,-0.79013 -0.14992,-0.59748 -0.0743,-0.79013 0.31005,-0.79013 0.39229,0 0.50798,-0.3268 0.50798,-1.43196 0,-0.94052 0.1529,-1.49079 0.44546,-1.603 0.32608,-0.12519 0.37737,-0.40749 0.19172,-1.05523 -0.20012,-0.69782 -0.10299,-1.05994 0.46043,-1.71566 0.39273,-0.45704 0.8752,-0.83096 1.07229,-0.83096 0.19704,0 0.35863,-0.21313 0.35863,-0.47387 0,-0.26062 0.15943,-0.47439 0.3545,-0.47439 0.23828,0 0.25302,-0.12943 0.045,-0.39481 -0.26083,-0.33276 -0.4888,-2.59431 -0.4377,-4.34547 0.13245,-4.537359 0.55403,-8.118609 1.02681,-8.721429 0.15278,-0.19487 0.13135,-1.10686 -0.0496,-2.08566 -0.19528,-1.0566 -0.21054,-2.03748 -0.0387,-2.49804 0.16573,-0.44579 0.16594,-1.06727 0,-1.50792 -0.18011,-0.47782 -0.16073,-0.89566 0.0527,-1.1529 0.18418,-0.22192 0.30209,-0.89122 0.26199,-1.48725 -0.0401,-0.59602 0.11556,-1.53958 0.34624,-2.09651 0.27258,-0.65692 0.36232,-1.7238 0.25683,-3.03754 -0.12607,-1.57075 -0.0616,-2.06335 0.28732,-2.19728 0.33101,-0.12703 0.36763,-0.32628 0.13901,-0.75344 -0.52335,-0.97795 -0.32079,-3.29548 0.39997,-4.57802 0.63338,-1.12704 0.64032,-1.21778 0.12041,-1.5167 -0.64525,-0.37095 -0.7537,-1.06338 -0.12919,-0.82372 0.52382,0.201 0.88266,-0.0467 1.3932,-0.96015 0.53196,-0.95188 0.49817,-1.66347 -0.0791,-1.66347 -0.26082,0 -0.47387,-0.1375 -0.47387,-0.30592 0,-0.16842 0.23449,-0.21642 0.5209,-0.10645 0.46404,0.17807 0.49571,-0.0206 0.29145,-1.82522 -0.25728,-2.27428 -0.31685,-2.40648 -0.88367,-1.95957 -0.22149,0.17463 -0.79375,0.41133 -1.27175,0.52555 -0.64216,0.15339 -0.8692,0.0885 -0.8692,-0.24804 0,-0.35507 -0.38393,-0.43107 -1.73891,-0.34417 -1.49609,0.0961 -1.78718,0.0212 -2.0867,-0.53847 -0.30152,-0.56331 -0.55331,-0.62644 -1.87998,-0.46922 -1.32901,0.1574 -1.55697,0.10036 -1.72651,-0.43356 -0.12442,-0.39208 -0.4843,-0.6023 -0.79996,-0.61702 z m -200.87766,33.26153 c 3.32383,-0.10355 12.33618,4.87061 13.03849,7.66879 0.10252,0.408549 0.40618,0.827149 0.67489,0.930169 0.43286,0.16607 0.42768,0.25511 -0.0486,0.78135 -0.35253,0.38947 -0.42215,0.66614 -0.20154,0.80254 0.18521,0.11442 0.33692,0.5249 0.33692,0.9126 0,0.38768 0.49753,1.65939 1.10588,2.82619 0.60836,1.16679 1.10639,2.32958 1.10639,2.58382 0,0.25424 0.28437,0.61435 0.63201,0.80046 0.36962,0.19781 0.63201,0.66173 0.63201,1.11725 0,0.48172 0.18071,0.77928 0.47386,0.77928 0.67477,0 0.58743,0.55328 -0.12297,0.77876 -0.44347,0.14074 -0.65093,0.61358 -0.80772,1.83865 -0.27263,2.13021 -0.82699,2.89798 -1.89757,2.6293 -0.44341,-0.11132 -0.80613,-0.0709 -0.80613,0.0899 0,0.16083 -0.74629,0.38732 -1.65883,0.50333 -1.22391,0.15552 -2.21549,0.58408 -3.7791,1.63401 -1.16583,0.78284 -2.20636,1.69716 -2.31251,2.0314 -0.1061,0.33424 -0.47435,0.60772 -0.81857,0.60772 -0.3442,0 -0.94689,0.34592 -1.33892,0.76894 -0.39206,0.423 -1.30966,0.95522 -2.03915,1.18288 -0.72951,0.22768 -1.32601,0.52172 -1.32601,0.65319 0,0.13157 -0.21365,0.23926 -0.4744,0.23926 -0.26061,0 -0.47387,-0.13708 -0.47387,-0.30438 0,-0.16826 -0.78536,-0.26869 -1.75492,-0.22479 -1.13282,0.0513 -1.87476,-0.0653 -2.09291,-0.32814 -0.18584,-0.22394 -0.74729,-0.4067 -1.24746,-0.4067 -0.59769,0 -0.9095,-0.16283 -0.9095,-0.47439 0,-0.26073 -0.10637,-0.44015 -0.2367,-0.39894 -0.31848,0.10096 -2.33127,-0.71739 -2.92333,-1.18856 -0.26075,-0.20747 -0.95946,-0.53987 -1.55236,-0.73897 -0.59291,-0.19915 -1.58843,-0.75185 -2.21226,-1.22783 -0.62384,-0.47599 -1.29257,-0.82902 -1.48675,-0.78445 -0.56126,0.12858 -1.12398,-0.76415 -1.2955,-2.05517 -0.087,-0.65495 -0.28533,-1.43013 -0.4403,-1.72289 -0.15515,-0.29274 -0.28165,-1.43963 -0.28165,-2.54817 0,-1.87308 0.0667,-2.06524 0.94777,-2.71663 0.59309,-0.43851 0.94826,-0.98355 0.94826,-1.45572 0,-1.08203 0.31563,-1.75442 0.8237,-1.75442 0.42556,0 0.60773,-0.91592 0.48163,-2.42569 -0.0315,-0.37805 0.0884,-0.7771 0.26667,-0.88728 0.17825,-0.11022 0.32401,-0.48091 0.32401,-0.82373 0,-0.34284 0.21214,-0.70516 0.47127,-0.8046 0.25914,-0.0994 0.63641,-0.73161 0.8382,-1.405079 0.42694,-1.425 3.04975,-4.08244 4.02921,-4.08244 0.35407,0 0.79626,-0.28489 0.98237,-0.63252 0.18606,-0.34763 0.58404,-0.632 0.88469,-0.632 0.30065,0 1.07738,-0.28435 1.72601,-0.632 0.64863,-0.34764 1.44706,-0.63201 1.77406,-0.63201 0.32697,0 0.77925,-0.22335 1.0056,-0.49609 0.20185,-0.24319 0.56078,-0.36141 1.0356,-0.37621 z m 14.64615,36.043799 c 0.51318,-0.007 0.96626,0.18702 1.70119,0.67334 0.68474,0.45314 1.24486,0.96452 1.24486,1.13585 0,0.17133 0.10687,0.29405 0.2372,0.27388 0.93089,-0.14698 1.00621,0.092 0.83511,2.64481 -0.28306,4.22559 -0.31031,8.39284 -0.0729,11.11921 h -5.3e-4 c 0.12208,1.40207 0.108,2.66595 -0.0315,2.80862 -0.13957,0.14275 -0.54139,-0.106 -0.89297,-0.55294 -0.35155,-0.44696 -0.84458,-0.81235 -1.09553,-0.81235 -0.25096,0 -0.82937,-0.76201 -1.28522,-1.69292 -0.45582,-0.93095 -1.25965,-2.03279 -1.78644,-2.44895 -0.52681,-0.41617 -0.95866,-0.91198 -0.96067,-1.10122 -0.003,-0.35919 -1.42963,-2.16506 -2.93574,-3.71657 -0.48308,-0.49767 -1.09119,-1.31651 -1.35133,-1.81953 -0.26009,-0.50302 -0.5759,-0.91712 -0.70176,-0.91932 -0.12589,-0.003 -0.4087,-0.11886 -0.62838,-0.25839 -0.29202,-0.18535 -0.071,-0.60933 0.8206,-1.5751 0.67112,-0.72693 1.38449,-1.32188 1.58494,-1.32188 0.20042,0 0.3643,-0.14384 0.3643,-0.31987 0,-0.36605 2.91253,-1.71822 4.40904,-2.04691 0.19714,-0.0433 0.37463,-0.0676 0.54571,-0.0698 z"
       id="path4711"
       inkscape:connector-curvature="0" />
    <path
       style="fill:#232323;fill-opacity:1;stroke-width:1"
       d="m -350.42201,-251.36378 c -0.76154,0.0156 -1.78283,0.22015 -2.94348,0.60565 -1.1139,0.36997 -2.21049,0.82621 -2.43655,1.01389 -0.22971,0.19077 -0.82285,0.25109 -1.34461,0.13642 -0.76507,-0.16804 -0.97121,-0.0876 -1.14052,0.44597 -0.14538,0.45807 -0.50477,0.66852 -1.21232,0.70952 -0.55319,0.032 -1.29389,0.0749 -1.64589,0.0951 -0.352,0.0204 -0.82016,0.14887 -1.04076,0.28526 -0.22054,0.13616 -0.57275,0.10558 -0.78238,-0.0682 -0.43349,-0.35914 -1.8035,0.57035 -1.8035,1.22369 0,0.21294 -0.35507,0.71711 -0.78963,1.11983 -0.47998,0.44486 -0.79012,1.07927 -0.79012,1.61644 0,0.62129 -0.30559,1.12378 -1.02735,1.69085 -1.69572,1.33222 -2.9323,1.708 -4.28654,1.30225 -0.64487,-0.19303 -1.49154,-0.26778 -1.88156,-0.16588 -0.39,0.10188 -0.92038,0.0102 -1.17872,-0.20412 -0.25834,-0.21437 -1.18203,-0.40053 -2.05258,-0.41393 -1.08151,-0.0163 -1.58287,-0.15504 -1.58287,-0.4377 0,-0.30148 -0.59997,-0.41341 -2.21226,-0.41341 -1.26416,0 -2.21226,0.13523 -2.21226,0.31574 0,0.17381 -0.29758,0.31626 -0.66146,0.31626 -0.40378,0 -0.72822,0.25574 -0.83304,0.65577 -0.13309,0.509 -0.33989,0.61304 -0.92501,0.46613 -0.97896,-0.2457 -2.00504,0.31492 -2.00504,1.09554 0,0.38737 -0.28379,0.68602 -0.76687,0.80718 -0.42177,0.10585 -1.01264,0.46433 -1.3131,0.79634 -0.30044,0.33202 -0.77282,0.60939 -1.05008,0.61339 -0.27723,0.006 -0.75949,0.20399 -1.07175,0.4408 -0.31229,0.23677 -0.84153,0.35891 -1.17618,0.2713 -0.43116,-0.11273 -0.7144,0.0733 -0.97202,0.63873 -0.19992,0.43881 -0.63058,0.86813 -0.95705,0.95343 -0.34227,0.0895 -0.59375,0.43494 -0.59375,0.81648 0,0.36392 -0.10634,0.63935 -0.23667,0.61185 -0.93721,-0.19838 -3.02803,1.62149 -2.73627,2.38177 0.14293,0.37263 0.0144,0.51263 -0.46974,0.51263 -0.36624,0 -0.66559,0.13204 -0.66559,0.29352 0,0.16141 -0.17809,0.48137 -0.39534,0.71107 -0.21725,0.22969 -0.60378,0.82138 -0.85886,1.31516 -0.6454,1.2493 -2.40012,3.05253 -2.97035,3.05253 -0.28249,0 -0.51453,0.3516 -0.57414,0.8692 -0.055,0.478 -0.2575,0.84052 -0.45009,0.80512 -0.19272,-0.0352 -0.69072,0.61945 -1.10641,1.45521 -0.48902,0.9833 -1.0623,1.63781 -1.6247,1.85415 -0.71297,0.27424 -0.8692,0.52803 -0.8692,1.41283 0,0.74176 -0.24673,1.31004 -0.79013,1.82056 -0.43455,0.40824 -0.79013,1.00671 -0.79013,1.32964 0,1.14383 -0.88481,2.78311 -1.39631,2.58692 -0.26585,-0.10201 -0.71043,0.0417 -0.98803,0.31936 -0.27763,0.2776 -0.88577,0.50434 -1.35136,0.50436 -0.59132,0 -1.11723,0.33938 -1.74408,1.125 -0.49355,0.61858 -1.24034,1.25514 -1.65931,1.41438 -0.53231,0.20237 -0.76171,0.53415 -0.76171,1.10174 0,0.44738 -0.35853,1.17088 -0.7984,1.61075 -0.43927,0.43927 -0.75928,1.03757 -0.71107,1.32912 0.0573,0.34658 -0.16452,0.56564 -0.64027,0.63304 -0.96247,0.13644 -1.4665,1.3755 -2.07896,5.11132 -0.87466,5.33551 -1.23206,6.52471 -2.18591,7.275 -0.78203,0.61514 -0.85452,0.82866 -0.68006,2.0004 0.10745,0.72154 0.2503,1.36735 0.31729,1.43453 0.0671,0.0673 -0.15822,0.51584 -0.50075,0.99684 -0.34248,0.48101 -0.6227,1.37871 -0.6227,1.99523 0,0.6165 -0.23275,1.94589 -0.51728,2.95383 -0.28448,1.00793 -0.49922,2.26677 -0.47903,2.79776 0.033,0.83302 -0.11573,1.02144 -1.08522,1.37201 -0.98348,0.35563 -1.1989,0.33791 -1.72701,-0.14005 -0.33187,-0.30033 -0.69464,-1.03238 -0.80616,-1.62677 -0.1188,-0.63309 -0.51419,-1.28457 -0.95446,-1.57303 -0.43481,-0.2849 -0.75136,-0.80203 -0.75136,-1.22732 0,-0.40431 -0.132,-0.81678 -0.29303,-0.91622 -0.16414,-0.10152 -0.18439,-0.56067 -0.046,-1.04593 0.13507,-0.47567 0.14277,-1.14889 0.016,-1.49655 -0.12655,-0.34763 -0.11059,-0.86307 0.0356,-1.14515 0.14645,-0.28205 0.21003,-0.80151 0.14211,-1.15445 -0.0807,-0.41903 0.0732,-0.69287 0.44288,-0.78962 0.643,-0.16817 1.06974,-2.06169 0.59738,-2.65048 -0.18198,-0.22674 -0.1815,-0.43644 10e-4,-0.54932 0.28514,-0.17623 0.63553,-1.56 0.88159,-3.48299 0.0689,-0.53863 -0.086,-1.14843 -0.37155,-1.46399 -0.26919,-0.29745 -0.53173,-1.09089 -0.58394,-1.76321 -0.0521,-0.67229 -0.20579,-1.96676 -0.34107,-2.87631 -0.20217,-1.35846 -0.15833,-1.68728 0.24545,-1.84226 0.37418,-0.14399 0.45982,-0.5301 0.35658,-1.63194 -0.0744,-0.79384 -0.2694,-1.60523 -0.43357,-1.80299 -0.16531,-0.19908 -0.19434,-0.84812 -0.0651,-1.45469 0.27582,-1.29402 0.24198,-2.89361 -0.0718,-3.40135 -0.1229,-0.19886 0.007,-0.80773 0.28937,-1.35289 0.32174,-0.62212 0.47334,-1.53779 0.40773,-2.45876 -0.0747,-1.04816 0.008,-1.44443 0.29043,-1.38803 0.21722,0.0435 0.39531,-0.2053 0.39531,-0.55294 0,-0.37311 -0.21111,-0.63252 -0.51469,-0.63252 -0.42643,0 -0.48818,-0.26865 -0.36277,-1.57355 0.128,-1.33192 0.0611,-1.60236 -0.43408,-1.75958 -0.43164,-0.13704 -0.58499,-0.49479 -0.58499,-1.36529 0,-0.64879 -0.17756,-1.36974 -0.39478,-1.60197 -0.32385,-0.34601 -0.26715,-0.39106 0.31572,-0.25063 0.83172,0.20051 0.89117,0.0493 0.2372,-0.60461 -0.26082,-0.26074 -0.47387,-0.74843 -0.47387,-1.08366 0,-0.33522 -0.21365,-0.60926 -0.47439,-0.60926 -0.61683,0 -0.59889,-0.28606 0.0636,-1.01803 0.50628,-0.55941 0.50459,-0.65513 -0.032,-1.65158 -0.39248,-0.72859 -0.50321,-1.36079 -0.35605,-2.03088 0.14558,-0.66293 0.0553,-1.19912 -0.28371,-1.6831 -0.27347,-0.39061 -0.49765,-0.99218 -0.49765,-1.33739 0,-0.34522 -0.69845,-1.29445 -1.55237,-2.10891 -1.28566,-1.22628 -1.82697,-1.51852 -3.14812,-1.70016 -1.20321,-0.16548 -1.6448,-0.37427 -1.79575,-0.85008 -0.15089,-0.47539 -0.38214,-0.58521 -0.93845,-0.44545 -0.40611,0.10197 -1.1393,0.0329 -1.62936,-0.15348 -0.49008,-0.18639 -0.9271,-0.32655 -0.97152,-0.31315 -0.0443,0.0142 -0.59494,-0.18895 -1.2237,-0.45166 -1.86888,-0.78088 -3.09554,-0.61058 -4.94077,0.68575 -2.00192,1.40637 -2.47735,1.85985 -2.22002,2.11718 0.1075,0.10774 0.0392,0.19586 -0.15142,0.19586 -0.19068,0 -0.392,0.31995 -0.44751,0.71106 -0.0754,0.53103 -0.52055,0.87106 -1.757,1.34307 -0.91061,0.34764 -1.65682,0.81008 -1.6588,1.02733 -0.002,0.21722 -0.28326,0.39481 -0.62479,0.39481 -0.68209,0 -1.27529,0.86687 -1.04127,1.52187 0.0836,0.23409 -0.14232,0.49225 -0.51675,0.59015 -0.3809,0.0996 -0.66509,0.42954 -0.66509,0.77204 0,0.32907 -0.29215,0.84576 -0.64905,1.14825 -0.35689,0.30248 -0.9027,1.11908 -1.21285,1.81436 -0.31011,0.69527 -0.80036,1.459 -1.08934,1.69757 -0.28898,0.23854 -0.52504,0.7199 -0.52504,1.06919 0,0.76592 -1.18581,2.76365 -1.6402,2.76365 -0.17735,0 -0.24966,0.19304 -0.15918,0.42892 0.0905,0.2359 -0.1067,0.84021 -0.4382,1.34307 -0.33152,0.50284 -0.60362,1.23017 -0.60463,1.61592 -0.001,0.38573 -0.29117,1.25556 -0.64439,1.93322 -0.5199,0.99629 -0.61563,1.64832 -0.50231,3.40702 0.0772,1.19625 0.23257,2.4065 0.3452,2.68925 0.14846,0.37257 -0.0178,0.57012 -0.60409,0.71726 -0.52732,0.13236 -0.80873,0.42079 -0.80873,0.82889 0,0.74305 -0.27231,0.80132 -0.75552,0.16175 -0.30586,-0.40477 -0.43894,-0.39465 -1.03817,0.0791 -0.37806,0.29889 -0.73374,0.8172 -0.79012,1.15187 -0.0565,0.33464 -0.42284,0.9596 -0.81392,1.38907 -0.3911,0.42944 -0.71106,1.17539 -0.71106,1.65726 0,1.18959 -0.29745,1.87585 -0.81288,1.87585 -0.23601,0 -0.5769,0.27657 -0.75809,0.61495 -0.25884,0.48369 -0.21066,0.68275 0.22582,0.9307 0.46871,0.26627 0.49374,0.41586 0.16021,0.96066 -0.21722,0.35494 -0.39481,1.08068 -0.39481,1.61282 0,0.60957 -0.27609,1.22494 -0.74621,1.66347 -0.41039,0.38279 -0.84285,1.00318 -0.96067,1.37872 -0.11785,0.37554 -0.56444,0.91241 -0.99219,1.19269 -0.42775,0.28029 -0.77772,0.64828 -0.77772,0.81804 0,0.16981 -0.28437,0.5934 -0.63201,0.94103 -0.39129,0.39128 -0.63201,1.05366 -0.63201,1.7384 0,0.77253 -0.14279,1.10587 -0.47386,1.10587 -0.42397,0 -0.5201,0.2703 -0.5886,1.65933 -0.0107,0.21727 -0.34483,0.84763 -0.74258,1.40095 -0.39777,0.55332 -0.72297,1.18021 -0.72297,1.3932 0,0.21307 -0.56925,1.141 -1.26452,2.06189 -0.69525,0.92088 -1.264,1.78793 -1.264,1.92701 0,0.13901 -0.49149,0.70421 -1.09243,1.25574 -1.09903,1.00865 -2.18337,3.03856 -1.81798,3.40392 0.10797,0.108 -0.11727,0.27846 -0.50075,0.37879 -0.38352,0.10029 -0.69713,0.37914 -0.69713,0.6196 0,0.24054 -0.20365,0.43718 -0.45267,0.43718 -0.249,0 -0.54584,0.2925 -0.6594,0.65009 -0.1135,0.3576 -0.54975,0.78105 -0.96943,0.94052 -0.41966,0.15955 -0.76277,0.4242 -0.76277,0.58859 0,0.1643 -0.4268,0.3925 -0.94824,0.50695 -0.78957,0.17339 -0.94827,0.3626 -0.94827,1.13119 0,0.50766 -0.14194,0.92295 -0.31575,0.92295 -0.1738,0 -0.31626,-0.21314 -0.31626,-0.47388 0,-0.57137 -0.36853,-0.61071 -0.88468,-0.0946 -0.29499,0.29496 -0.46363,0.29496 -0.75862,0 -0.62214,-0.62221 -0.91027,-0.43349 -0.68834,0.45114 0.18595,0.74084 0.14476,0.79541 -0.38084,0.50126 -0.39722,-0.2224 -0.78224,-0.22687 -1.18081,-0.0134 -0.45529,0.24368 -0.72572,0.17184 -1.17565,-0.31109 -0.3624,-0.38902 -1.22142,-0.71291 -2.26136,-0.85266 -0.92218,-0.12401 -1.81886,-0.33638 -1.99263,-0.47232 -0.17383,-0.13583 -0.8635,-0.55202 -1.53273,-0.92501 -0.91485,-0.50987 -1.32178,-0.59157 -1.63918,-0.32814 -0.29837,0.24842 -0.60362,0.2541 -1.04076,0.0202 -0.4726,-0.25301 -0.79444,-0.20231 -1.36531,0.21497 -1.96077,1.43326 -3.48437,1.64123 -7.22124,0.98496 -0.95599,-0.16789 -2.19813,-0.34626 -2.76006,-0.39688 -1.17789,-0.10587 -2.16109,-0.88091 -2.41845,-1.90634 -0.0983,-0.39166 -0.89328,-1.19921 -1.7663,-1.79421 -0.87299,-0.59502 -1.58718,-1.25967 -1.5875,-1.47691 -7.4e-4,-0.48033 0.17425,-0.49246 0.9679,-0.0677 0.93331,0.49946 0.79388,-0.45435 -0.17828,-1.21904 -0.95501,-0.7513 -0.9951,-1.00459 -0.15811,-1.00459 0.79726,0 0.80541,-0.47195 0.0227,-1.31207 -0.50919,-0.54655 -0.55149,-0.79133 -0.25683,-1.48828 0.19389,-0.45869 0.55729,-1.00492 0.80719,-1.21388 0.24884,-0.20891 0.36603,-0.61026 0.25787,-0.89193 -0.28382,-0.73959 0.39044,-1.89933 0.84179,-1.44798 0.48583,0.48593 0.85577,0.43681 0.85577,-0.11317 0,-0.71455 0.90705,-1.00556 3.29489,-1.0573 1.20388,-0.0261 2.98129,-0.29246 3.95015,-0.59169 1.1004,-0.33987 3.06633,-0.57569 5.23792,-0.62787 5.62539,-0.1355 6.77239,-0.34559 7.66258,-1.40354 0.42354,-0.50333 0.88958,-0.84111 1.0356,-0.75085 0.14597,0.0902 0.35446,0.0196 0.46353,-0.1571 0.10919,-0.17673 0.44129,-0.32143 0.73742,-0.32143 0.29612,0 0.82089,-0.37908 1.16633,-0.84232 1.0581,-1.41893 1.35753,-1.62042 2.7549,-1.8526 0.74215,-0.12334 1.73357,-0.42077 2.20294,-0.66094 0.46937,-0.24027 1.19417,-0.43667 1.61076,-0.43667 0.41659,0 1.06826,-0.26964 1.44849,-0.59945 0.38028,-0.32973 0.94771,-0.53258 1.26092,-0.45061 0.9153,0.23934 1.71239,-1.26567 1.46037,-2.75746 -0.28675,-1.69731 -1.7031,-2.54979 -4.5775,-2.75539 -1.9018,-0.13607 -2.18776,-0.0822 -2.4815,0.46664 -0.38571,0.72069 -2.41287,0.93804 -3.1378,0.33641 -0.35454,-0.29417 -0.51462,-0.25496 -0.76171,0.18656 -0.21865,0.39065 -0.61397,0.52989 -1.31257,0.46199 -0.78918,-0.0766 -0.99074,0.0184 -0.95602,0.45268 0.0531,0.66512 -0.30655,0.71148 -0.81082,0.10387 -0.48289,-0.58183 -2.95285,-0.95669 -6.50139,-0.98599 -6.3073,-0.0522 -6.54278,-0.0812 -6.32106,-0.7798 0.15037,-0.47376 0.0569,-0.63232 -0.37364,-0.63251 -0.73358,-3.2e-4 -2.94452,-1.95316 -2.94452,-2.60088 0,-0.27021 -0.21995,-0.57579 -0.48885,-0.67903 -0.63698,-0.24443 -0.39928,-2.70378 0.3116,-3.22357 0.6508,-0.47591 0.62712,-0.81549 -0.0486,-0.6997 -0.78362,0.13438 -0.87845,-0.87983 -0.21911,-2.34198 0.45271,-1.004 0.49007,-1.37095 0.18863,-1.85363 -0.50028,-0.80097 -0.47617,-0.92595 0.17724,-0.92604 0.43529,-7e-5 0.55877,-0.28577 0.58187,-1.34307 0.0328,-1.51272 0.59336,-2.72623 2.0066,-4.34547 0.53097,-0.60837 0.96552,-1.28397 0.96584,-1.5012 3.9e-4,-0.21722 0.20603,-0.39533 0.45683,-0.39533 0.59549,0 2.70422,-1.24671 2.70422,-1.59887 0,-0.14994 0.60061,-0.43447 1.33427,-0.632 0.73369,-0.19756 1.61838,-0.55835 1.9663,-0.80202 0.3479,-0.24376 0.82548,-0.44338 1.0609,-0.44338 0.44554,0 1.94281,-1.3674 2.45465,-2.24173 0.16219,-0.27704 1.06071,-1.17898 1.99678,-2.00401 1.25879,-1.10921 1.76806,-1.39285 1.95594,-1.08882 0.2046,0.33107 0.36539,0.31786 0.82632,-0.0682 0.97313,-0.81505 2.16802,-1.18397 3.44836,-1.06505 0.92192,0.0857 1.40483,-0.0528 1.93993,-0.55552 0.39187,-0.36803 0.80626,-0.57503 0.92138,-0.45992 0.4336,0.43359 0.94435,-0.44341 0.80616,-1.38441 -0.0992,-0.67591 -0.40074,-1.09179 -0.97359,-1.3441 -0.45624,-0.20096 -1.00755,-0.60567 -1.22523,-0.89917 -0.29207,-0.39363 -0.83256,-0.52325 -2.06086,-0.49454 -0.91581,0.0214 -1.87571,-0.0964 -2.13268,-0.26149 -0.25699,-0.16526 -1.10712,-0.32568 -1.88931,-0.35708 -0.78219,-0.0313 -1.91963,-0.14134 -2.52801,-0.24392 -3.35521,-0.56515 -7.0344,-0.7023 -9.00719,-0.33641 -0.69527,0.12893 -1.92656,0.30241 -2.73626,0.38551 -1.40603,0.14423 -2.56056,0.84087 -2.87528,1.73529 -0.11441,0.32523 -0.34153,0.30002 -1.07075,-0.11834 -0.92241,-0.52919 -0.9272,-0.52791 -1.34823,0.42323 -0.44397,1.00299 -2.01832,2.15859 -2.94349,2.16059 -0.55642,0.001 -1.50948,1.48148 -1.50948,2.34456 0,0.68536 -2.19398,2.08153 -3.27109,2.08153 -0.56275,0 -1.32535,-0.3633 -1.99163,-0.94826 -0.59388,-0.52147 -1.35837,-0.94826 -1.6986,-0.94826 -0.34025,0 -0.99885,-0.42631 -1.46349,-0.94775 -0.46458,-0.52145 -1.03457,-0.94826 -1.26658,-0.94826 -0.23212,0 -0.42167,-0.10874 -0.42167,-0.24133 0,-0.13258 -0.95993,-0.17789 -2.1332,-0.10129 -1.1733,0.0766 -2.95072,0.13206 -3.95015,0.12506 -1.46019,-0.0112 -1.82192,0.0869 -1.83761,0.49713 -0.0141,0.35955 -0.10049,0.31103 -0.29197,-0.1633 -0.17505,-0.43355 -0.64646,-0.73436 -1.32292,-0.84388 -2.26703,-0.36689 -5.30521,-1.34752 -5.38832,-1.73943 -0.1353,-0.63802 -3.66294,-1.97257 -5.77585,-2.18488 -1.04614,-0.10515 -2.51928,-0.52198 -3.28613,-0.92965 -0.81071,-0.43103 -1.53524,-0.62965 -1.73839,-0.47646 -0.40984,0.3089 -3.2354,0.27391 -3.55327,-0.0439 -0.29641,-0.29655 -1.37716,-0.27858 -1.37716,0.0227 0,0.47813 -2.68467,1.39113 -4.09019,1.39113 -0.78968,0 -1.53887,0.16607 -1.6645,0.36897 -0.12562,0.2028 -0.69511,0.39893 -1.26608,0.43563 -0.57097,0.0367 -2.05785,0.12776 -3.30367,0.20206 -1.24587,0.0744 -2.41001,0.22506 -2.58693,0.33434 -0.17704,0.1095 -0.89969,0.0689 -1.6061,-0.0899 -1.05945,-0.23807 -1.28469,-0.20519 -1.28469,0.18603 0,0.32833 -0.16997,0.40374 -0.55292,0.24495 -1.0527,-0.43633 -4.51004,-0.43777 -5.95779,-0.002 -0.79822,0.24031 -1.62411,0.36997 -1.83554,0.28887 -0.21135,-0.0811 -0.6462,0.14233 -0.96634,0.4961 -0.32015,0.35377 -0.75589,0.64337 -0.96843,0.64337 -0.21249,0 -0.56346,0.21316 -0.77978,0.47387 -0.22085,0.26623 -0.91022,0.47387 -1.57096,0.47387 -1.04807,0 -2.62012,0.85925 -2.55852,1.39837 0.0761,0.66747 -0.076,0.81507 -0.84799,0.81907 -1.04156,0.006 -2.03293,0.588 -1.42267,0.83561 0.67464,0.27373 0.43966,0.8621 -0.71106,1.78025 -0.60833,0.48541 -1.10588,1.08013 -1.10588,1.32188 0,0.24172 0.70138,1.15965 1.55855,2.03967 0.85717,0.88003 1.62634,1.84956 1.70894,2.15439 0.0827,0.30484 0.22972,0.91617 0.32714,1.35858 0.11519,0.5232 0.90005,1.32431 2.2443,2.29133 1.13675,0.81777 2.20456,1.48673 2.37297,1.48673 0.16851,0 0.53567,0.34996 0.81597,0.77773 0.28027,0.42776 0.78576,0.8655 1.12345,0.97255 0.76274,0.24211 2.39995,1.72599 1.90428,1.72599 -0.19915,0 -0.36226,0.14246 -0.36226,0.31626 0,0.17382 0.27405,0.31575 0.60928,0.31575 0.3352,0 0.84233,0.23307 1.12704,0.51779 0.44577,0.44577 0.70181,0.46458 1.84021,0.13643 3.0567,-0.88106 3.58661,-1.10592 4.6333,-1.96474 0.6095,-0.50013 1.48098,-0.90175 1.95649,-0.90175 0.47157,0 0.94514,-0.14195 1.05264,-0.31574 0.10742,-0.17382 0.5251,-0.31626 0.92811,-0.31626 0.40301,0 0.89757,-0.19855 1.09916,-0.44132 0.20148,-0.24278 0.64373,-0.36879 0.98287,-0.28009 0.33912,0.0887 1.19698,-0.0712 1.90635,-0.35501 1.54107,-0.61657 6.63932,-0.59088 7.88324,0.0398 0.43455,0.22025 0.89648,0.4016 1.02682,0.40256 0.35247,0.003 1.4733,1.18855 1.29347,1.36839 -0.0853,0.0852 0.0792,0.60787 0.36533,1.16117 0.28623,0.55329 0.44281,1.20761 0.3483,1.45417 -0.0945,0.24653 -0.0286,0.8255 0.14676,1.28675 0.30991,0.81503 -0.0569,2.14138 -0.99012,3.58066 -0.16904,0.26071 -0.52597,0.95099 -0.79322,1.53427 -0.26726,0.58331 -0.83328,1.43557 -1.2578,1.89342 -0.42455,0.45782 -0.77153,0.93221 -0.77153,1.05472 0,0.12248 -0.92432,1.14754 -2.05414,2.27738 -1.12985,1.12982 -2.05465,2.23674 -2.05465,2.4598 0,0.22313 -0.58063,0.93614 -1.29038,1.58491 -0.70977,0.64879 -1.1988,1.3277 -1.08727,1.50844 0.1116,0.18065 0.0606,0.32814 -0.11317,0.32814 -0.17383,0 -0.40409,-0.14195 -0.51159,-0.31574 -0.29295,-0.47401 -0.78505,-0.3812 -1.00407,0.18965 -0.10679,0.27828 0.004,0.6344 0.24701,0.79117 0.31713,0.20501 0.21953,0.26272 -0.34779,0.20516 -0.62545,-0.0634 -0.81188,0.0812 -0.89969,0.69763 -0.0609,0.42772 -0.33226,0.93993 -0.60307,1.13791 -0.3453,0.25256 -0.43542,0.64485 -0.30125,1.31517 0.16634,0.83186 0.0344,1.08145 -1.01907,1.92805 -0.99377,0.79862 -1.25021,1.24329 -1.43608,2.48925 -0.12448,0.83437 -0.41886,1.97949 -0.65423,2.54455 -0.46691,1.12086 -1.97567,2.68425 -2.36059,2.44636 -0.13224,-0.0817 -0.41619,0.0631 -0.63095,0.32194 -0.21482,0.25892 -0.89085,0.47078 -1.50225,0.47078 -0.6939,0 -1.26323,0.20767 -1.51567,0.55293 -0.22241,0.30416 -0.5583,0.57033 -0.7462,0.59273 -0.1878,0.0217 -0.45935,0.0567 -0.60357,0.0791 -0.14412,0.0217 -0.25008,0.35129 -0.2367,0.73277 0.0183,0.50725 -0.22952,0.76967 -0.92294,0.97617 -1.14004,0.33961 -1.87529,1.74099 -2.51354,4.79143 -0.24249,1.15903 -0.60079,2.29969 -0.79632,2.53525 -0.24461,0.29487 -0.25247,0.49246 -0.0243,0.63355 0.53599,0.33127 0.38243,0.71222 -0.36587,0.90796 -0.38343,0.10029 -0.60208,0.27695 -0.48627,0.39274 0.11583,0.11585 -0.0129,0.64277 -0.28578,1.17047 -0.31893,0.61878 -0.43725,1.39891 -0.3302,2.19728 0.0998,0.74441 -0.0207,1.68498 -0.30231,2.35903 -0.27607,0.6606 -0.3986,1.59124 -0.29869,2.26601 0.0933,0.62978 0.20354,2.14017 0.24492,3.35691 0.0429,1.2579 0.27774,2.55315 0.54417,3.00239 0.92483,1.55936 3.2789,3.47628 4.269,3.47628 0.25699,0 0.65291,0.26549 0.88003,0.58963 0.22715,0.32416 1.19528,0.90742 2.1513,1.29604 0.956,0.38862 2.25809,0.97827 2.89388,1.31051 0.64194,0.33545 2.83777,0.84843 4.93768,1.15342 l 5.1e-4,-0.001 c 4.53652,0.65961 7.31835,0.65536 9.23406,-0.0134 0.78219,-0.27307 2.07132,-0.5899 2.86443,-0.70435 1.17639,-0.1698 1.50188,-0.36367 1.76681,-1.05058 0.24448,-0.63394 0.78613,-1.01107 2.19213,-1.52704 1.82933,-0.67127 5.83247,-1.24546 7.39851,-1.06091 0.43453,0.0511 3.35243,0.0947 6.48436,0.0966 4.45344,0.003 5.89984,-0.10109 6.63681,-0.47387 0.51826,-0.26212 1.13398,-0.40836 1.3684,-0.32505 0.23442,0.0831 0.73191,-1e-5 1.10588,-0.185 0.63174,-0.31244 2.83067,-0.65692 4.59607,-0.71985 0.66382,-0.0237 4.98745,-2.52118 5.40692,-3.12332 0.32938,-0.47283 2.57175,-0.99166 4.177,-0.96635 4.58378,0.0724 6.87089,-0.0136 8.34213,-0.31368 1.25005,-0.25491 1.90389,-0.22992 2.88923,0.10955 0.94165,0.3243 2.00361,0.37919 4.07315,0.21033 1.53953,-0.12565 3.02903,-0.10852 3.31039,0.0377 0.2813,0.14647 0.60671,0.1705 0.72294,0.0543 0.11629,-0.11617 1.09678,-0.24602 2.17869,-0.28835 2.57937,-0.10096 4.40624,-0.71309 4.79917,-1.60869 0.21815,-0.49708 0.48604,-0.65353 0.89712,-0.52296 0.391,0.12409 0.75081,-0.0497 1.08159,-0.52194 0.46435,-0.66306 0.52163,-0.67273 0.9002,-0.15503 0.37126,0.50775 0.50559,0.4492 1.64642,-0.71468 1.21171,-1.2362 3.92565,-2.90732 4.72114,-2.90732 0.21863,0 0.39741,-0.291 0.39741,-0.64699 0,-0.66122 1.44759,-2.16954 2.0996,-2.18746 0.19867,-0.005 0.44402,-0.22645 0.5457,-0.49144 0.1296,-0.33776 0.42318,-0.42236 0.98184,-0.28216 0.72404,0.1817 0.79738,0.10995 0.79738,-0.78238 0,-0.77699 0.13404,-0.98237 0.64233,-0.98237 0.35346,0 1.13924,-0.49638 1.74617,-1.10329 0.6069,-0.60691 1.26804,-1.06944 1.46915,-1.02733 0.21246,0.0444 0.47813,-0.5859 0.63355,-1.50378 0.40716,-2.40431 0.52821,-2.63945 1.0175,-1.97507 0.50504,0.68581 1.12811,0.71947 1.12811,0.061 0,-0.27075 0.35893,-1.13563 0.79787,-1.92185 0.43895,-0.78622 0.76664,-1.59573 0.72814,-1.79886 -0.0385,-0.20324 0.43958,-0.91325 1.06246,-1.57768 0.73427,-0.78321 1.07812,-1.41514 0.97824,-1.7973 -0.0848,-0.32421 0.0737,-0.9144 0.3519,-1.31155 0.27818,-0.39715 0.50594,-0.95773 0.50594,-1.24541 0,-0.28768 0.21312,-0.69987 0.47386,-0.91622 0.26067,-0.21639 0.4743,-0.76697 0.4749,-1.2237 0.001,-0.82339 0.89348,-2.56007 1.76062,-3.42718 0.24794,-0.24799 0.45061,-0.70992 0.45061,-1.02629 0,-0.34842 0.3083,-0.65261 0.78187,-0.77153 0.43006,-0.10795 1.30331,-0.55001 1.94046,-0.98237 0.63711,-0.43238 1.35207,-0.786 1.58853,-0.786 0.23646,0 0.42995,-0.15025 0.42995,-0.33434 0,-0.18388 0.17756,-0.23436 0.39481,-0.11162 0.31602,0.17851 0.31602,0.13789 0,-0.20258 -0.55121,-0.59394 -0.4926,-1.45831 0.11472,-1.69137 0.39135,-0.15016 0.42651,-0.29589 0.1514,-0.62735 -0.27858,-0.3357 -0.22688,-0.46596 0.23204,-0.58601 0.46783,-0.12235 0.55872,-0.36888 0.4382,-1.18959 -0.10636,-0.72455 -0.0437,-0.96846 0.20878,-0.81235 0.2064,0.12756 0.43977,-0.022 0.5457,-0.34985 0.57354,-1.77572 1.53501,-3.25975 2.11201,-3.25975 0.52224,0 0.59132,-0.1517 0.43255,-0.9462 -0.15299,-0.76492 -0.0459,-1.04019 0.55914,-1.4366 0.47384,-0.31048 0.69374,-0.69927 0.59944,-1.05989 -0.0819,-0.31328 0.0655,-1.08301 0.32763,-1.71049 0.56235,-1.34585 2.08328,-2.11563 4.18063,-2.11563 1.48577,0 2.52463,0.77112 2.86494,2.127 0.099,0.39456 0.3013,0.71727 0.44958,0.71727 0.66135,0 0.87055,2.87158 0.76014,10.42882 -0.0673,4.59777 0.0153,8.6531 0.19225,9.44232 0.24135,1.07712 0.20934,1.53657 -0.1447,2.07688 -0.45048,0.68756 -0.58777,3.03112 -0.19534,3.33519 0.11218,0.0869 0.45746,1.21432 0.7674,2.50579 0.30998,1.2915 0.82309,2.85574 1.14051,3.47627 0.31739,0.62051 0.67992,1.69736 0.80513,2.39262 0.20952,1.16268 1.22369,3.01465 1.788,3.26544 0.13041,0.0579 0.23667,0.29169 0.23667,0.51935 0,0.22763 0.21367,0.49571 0.47439,0.59582 0.54732,0.20999 0.69633,3.67833 0.15812,3.67833 -0.46741,0 -0.38402,0.60973 0.15761,1.15136 0.26085,0.26073 0.4744,0.77457 0.4744,1.14205 0,0.76419 1.1517,2.12669 1.69241,2.00194 0.19867,-0.0457 0.25487,-0.0239 0.12454,0.0491 -0.50348,0.28157 -0.22053,0.96429 0.33898,0.81804 0.59785,-0.15635 2.88007,0.99946 3.29594,1.66915 0.16084,0.2589 0.51702,0.29778 1.10588,0.12041 0.47784,-0.14401 1.40126,-0.42493 2.05206,-0.62426 0.65079,-0.19933 1.32119,-0.27725 1.48984,-0.17311 0.16859,0.10421 0.64989,-0.34896 1.06968,-1.00718 0.41979,-0.65824 1.11728,-1.49971 1.5498,-1.86965 0.43254,-0.36992 1.11508,-1.25693 1.5167,-1.97145 0.76514,-1.36145 1.78988,-1.96638 2.20194,-1.29967 0.45714,0.73975 1.0092,-0.0344 0.80407,-1.12758 -0.2177,-1.16048 0.37446,-1.76823 1.44901,-1.48725 0.39344,0.10289 0.58703,-0.0148 0.58703,-0.35708 0,-0.281 0.25207,-0.51108 0.56018,-0.51108 0.58711,0 1.48492,-1.43275 1.83452,-2.92747 0.11231,-0.48024 0.36581,-0.97777 0.5638,-1.10588 0.47643,-0.30857 1.1498,-1.53341 1.1498,-2.09134 0,-0.2445 0.17967,-0.51317 0.39893,-0.59738 0.21924,-0.0841 0.72316,-0.80257 1.11983,-1.5968 0.39666,-0.79424 0.99935,-1.53278 1.33945,-1.64073 0.74692,-0.23706 0.78375,-0.57076 0.12404,-1.11828 -0.448,-0.37182 -0.448,-0.43553 0,-0.68626 0.27162,-0.15205 0.494,-0.64175 0.494,-1.08779 0,-0.98334 1.00084,-3.89795 1.33842,-3.89795 0.13301,0 0.24186,-0.5604 0.24186,-1.2454 0,-0.68501 0.14245,-1.33324 0.31625,-1.44074 0.17381,-0.10742 0.31576,-0.54151 0.31576,-0.96428 0,-0.72219 1.47428,-2.47526 2.32129,-2.76056 0.26107,-0.088 0.23964,-0.27473 -0.0749,-0.65577 -0.24212,-0.29319 -0.38457,-0.57984 -0.31625,-0.63717 0.0682,-0.0573 0.94244,-0.62166 1.94251,-1.25368 1.00005,-0.63201 1.78197,-1.32495 1.73787,-1.53995 -0.044,-0.21493 0.24479,-0.43973 0.64182,-0.50023 0.76536,-0.11653 2.10646,-1.94545 2.46034,-3.35535 0.11268,-0.449 0.36742,-0.81982 0.56584,-0.82682 0.68363,-0.0199 1.78284,-1.19853 1.78284,-1.91151 0,-0.39301 0.21701,-0.95453 0.48215,-1.24747 0.43198,-0.47737 0.43198,-0.57371 0,-0.93225 -0.60659,-0.50338 -0.62058,-0.95498 -0.0295,-0.95498 0.24903,0 0.54944,-0.31998 0.66768,-0.71106 0.34562,-1.14411 1.76538,-2.47842 2.41689,-2.2717 0.38499,0.12219 0.57105,0.0197 0.57105,-0.31419 0,-0.27252 0.13581,-0.49558 0.30178,-0.49558 0.16595,0 0.39479,-0.49752 0.50901,-1.10588 0.21722,-1.15785 1.08521,-1.56499 1.08521,-0.50901 0,0.84514 1.17941,2.19772 1.4986,1.71876 0.16153,-0.24235 0.62812,-0.29294 1.34927,-0.14624 1.22621,0.24938 1.65365,1.27488 0.86146,2.06705 -0.52348,0.52347 -0.22937,3.93698 0.51985,6.03426 0.24839,0.69527 0.53562,1.85404 0.63823,2.57452 0.13137,0.92357 0.51303,1.63646 1.29397,2.41742 0.6092,0.60921 1.1072,1.22833 1.10691,1.37615 -10e-4,0.47732 -1.82811,0.42565 -2.01332,-0.0568 -0.26514,-0.6909 -1.19528,-0.17838 -1.0945,0.60306 0.0477,0.36885 -0.0175,0.83807 -0.1447,1.04232 -0.12719,0.20423 -0.0598,0.74766 0.14986,1.20768 0.28937,0.63618 0.29234,0.89096 0.0114,1.06453 -0.42855,0.26533 -0.44355,6.60481 -0.0155,6.86935 0.42725,0.26409 0.30144,1.93924 -0.1819,2.42259 -0.28914,0.28911 -0.34621,0.60173 -0.1628,0.89142 0.3184,0.50264 0.0477,3.3041 -0.4041,4.18011 -0.19108,0.37059 -0.17663,0.7162 0.0408,0.97823 0.18568,0.22293 0.27659,1.02558 0.2036,1.78336 -0.14415,1.49655 0.22259,2.51147 0.90744,2.51147 0.264,0 0.37414,0.22575 0.28165,0.57929 -0.14814,0.56647 0.98298,1.76141 2.74142,2.89698 0.94533,0.61045 1.55565,1.21379 2.49442,2.46549 0.83269,1.11024 1.59139,1.32086 1.64848,0.45785 0.0349,-0.52671 0.0431,-0.52671 0.18087,0 0.21844,0.83598 2.31045,0.78163 2.31045,-0.06 0,-0.76218 0.36586,-1.01083 0.95292,-0.64802 0.65646,0.40573 1.32178,-0.24389 0.95396,-0.93121 -0.30951,-0.57829 -0.42638,-2.80712 -0.21654,-4.12791 0.0689,-0.43455 0.14296,-1.0394 0.16537,-1.34359 0.0222,-0.30416 0.29101,-0.55294 0.59687,-0.55294 0.52255,0 1.44243,-1.03844 1.53943,-1.73787 0.024,-0.17382 0.0599,-0.44059 0.0801,-0.59222 0.02,-0.15157 0.24828,-0.10005 0.50696,0.11472 0.50864,0.42215 0.56468,0.34444 0.91311,-1.2671 0.19719,-0.91215 -0.39534,-2.85928 -1.12395,-3.69383 -0.90371,-1.03511 -1.20769,-1.93107 -1.20769,-3.55792 0,-1.25815 0.12099,-1.6484 0.55295,-1.78232 1.48616,-0.46074 2.17376,-1.11492 2.81326,-2.67788 0.55369,-1.35324 1.01537,-1.88725 2.48822,-2.87734 0.9947,-0.66864 1.96848,-1.19686 2.16421,-1.17357 0.9465,0.11251 1.40333,-0.089 1.56012,-0.68833 0.14023,-0.53623 0.28157,-0.59678 0.77772,-0.33125 0.33361,0.17857 1.00192,0.39664 1.48465,0.48421 0.48279,0.0875 0.90474,0.2006 0.93795,0.25166 0.26728,0.41124 3.74965,4.65297 4.22764,5.14956 0.33462,0.34763 1.25953,1.20126 2.05568,1.89652 0.79616,0.69529 2.18276,1.93502 3.08095,2.75539 0.89815,0.82037 1.93606,1.58614 2.30684,1.70171 0.37079,0.11563 1.1416,0.61769 1.71256,1.11569 0.57097,0.49802 1.28705,0.90589 1.59112,0.90589 0.30407,0 1.31846,0.77538 2.25464,1.72341 0.9362,0.94796 1.80397,1.66099 1.92805,1.5844 0.23923,-0.14784 1.13228,1.74533 1.0082,2.13734 -0.17455,0.55163 -0.10393,6.27008 0.10077,8.1411 0.23784,2.17424 0.6083,2.71311 2.0929,3.04477 0.46689,0.10433 0.92889,0.39731 1.02629,0.65113 0.14531,0.37858 0.61673,0.41917 2.62723,0.22634 1.34771,-0.12913 2.80608,-0.24649 3.24063,-0.25993 1.17855,-0.0372 2.32029,-0.95281 3.60908,-2.89388 0.63464,-0.95582 1.50438,-1.87117 1.9327,-2.03399 0.42835,-0.16284 0.77877,-0.33688 0.77877,-0.38705 0,-0.0502 -0.28438,-0.86947 -0.63201,-1.82056 -0.34764,-0.9511 -0.632,-2.05127 -0.632,-2.44482 0,-0.42534 -0.19258,-0.71571 -0.47439,-0.71571 -0.31166,0 -0.47387,-0.31176 -0.47387,-0.90951 0,-0.50024 -0.21315,-1.4198 -0.47388,-2.0438 -0.54973,-1.31546 -0.60704,-1.90682 -0.15812,-1.62936 0.18392,0.11362 0.31574,-0.20081 0.31574,-0.75241 0,-0.52145 0.14246,-1.0361 0.31626,-1.1436 0.17381,-0.10743 0.31626,-0.4797 0.31626,-0.82734 0,-0.34763 0.10632,-0.56609 0.23667,-0.48524 0.1304,0.0808 0.16597,-0.98616 0.0791,-2.37143 -0.0869,-1.38527 -0.0596,-2.78395 0.0605,-3.10782 0.13315,-0.35912 0.0405,-0.73587 -0.23719,-0.96635 -0.6414,-0.53227 -0.5655,-0.93276 0.17673,-0.93276 0.65786,0 0.85276,-0.4583 0.33176,-0.78031 -0.16532,-0.10213 -0.2582,-1.03531 -0.2067,-2.07326 0.0515,-1.03795 -0.0267,-1.88671 -0.17363,-1.88671 -0.38039,0 -0.33099,-1.50284 0.0744,-2.26033 0.59894,-1.11915 1.65175,-2.1642 2.18023,-2.1642 0.28154,0 0.64736,-0.13525 0.81287,-0.30076 0.16549,-0.16537 0.86931,-0.33157 1.56424,-0.36897 0.69493,-0.0375 1.51591,-0.19379 1.82418,-0.34675 0.30826,-0.15302 1.58816,-0.34171 2.84427,-0.41961 1.25611,-0.078 2.92405,-0.28756 3.70624,-0.46561 2.72162,-0.61975 3.7056,-0.70622 3.92844,-0.34571 0.15129,0.2446 0.40018,0.25552 0.81184,0.0351 0.36254,-0.19391 0.66435,-0.20281 0.77566,-0.0227 0.1002,0.1621 0.99797,0.38369 1.99471,0.49299 0.99672,0.10918 2.16787,0.35466 2.60242,0.5457 0.43455,0.191 1.42957,0.45566 2.21175,0.58757 0.78219,0.13203 1.99139,0.40962 2.68666,0.61701 2.44991,0.73041 4.2395,0.61297 4.3031,-0.28215 0.0332,-0.4675 0.0498,-0.46674 0.1757,0.009 0.19758,0.74603 0.95197,0.95076 1.49655,0.40617 0.32629,-0.32631 0.52752,-0.35835 0.68161,-0.10904 0.12031,0.19458 0.043,0.46221 -0.17156,0.5948 -0.21456,0.13265 -0.26161,0.32086 -0.10439,0.41806 0.15722,0.0972 0.48034,0.0562 0.7183,-0.091 0.23789,-0.14696 0.75018,-0.14685 1.13792,5.2e-4 0.38774,0.14714 0.75508,0.22202 0.81648,0.16536 0.0613,-0.0567 0.68519,-0.18135 1.38648,-0.27698 1.56424,-0.21348 5.91223,-1.92605 5.62343,-2.21485 -0.11514,-0.11511 0.15257,-0.20929 0.5948,-0.20929 0.44221,0 0.98099,-0.21315 1.19734,-0.47388 0.21639,-0.26085 0.54644,-0.47439 0.73277,-0.47439 0.1865,0 0.7251,-0.37027 1.19734,-0.82268 0.75222,-0.72061 0.81929,-0.93579 0.53951,-1.7384 -0.75779,-2.17374 -2.8774,-2.74721 -12.02821,-3.25303 -0.82505,-0.0456 -1.59456,-0.17708 -1.70946,-0.29197 -0.11498,-0.11492 -0.36428,-0.0808 -0.55397,0.076 -0.21061,0.17391 -0.83775,0.0985 -1.6092,-0.19379 -0.69529,-0.2634 -1.57597,-0.51018 -1.95699,-0.54828 -0.38103,-0.038 -1.24185,-0.44951 -1.91306,-0.91467 -0.70519,-0.48869 -1.64978,-0.84595 -2.23707,-0.84595 -0.55903,0 -1.56332,-0.34534 -2.23191,-0.76739 -1.50968,-0.95295 -6.00446,-1.6927 -6.40942,-1.05472 -0.13949,0.21993 -0.25639,0.25111 -0.25839,0.0692 -0.007,-0.45854 -1.46691,-0.38842 -1.94872,0.0935 -0.49595,0.49502 -0.98266,0.50151 -1.46606,0.0181 -0.20682,-0.20683 -0.57348,-0.40489 -0.81442,-0.44029 -0.24093,-0.0354 -0.86882,-0.15884 -1.39526,-0.2744 -0.58725,-0.12889 -1.04214,-0.0723 -1.17719,0.14625 -0.12116,0.19598 -0.77289,0.31648 -1.44849,0.26768 -0.67558,-0.0488 -1.40075,0.0835 -1.61127,0.29404 -0.21059,0.21066 -0.63223,0.38292 -0.93689,0.38292 -0.30473,0 -0.90038,0.15783 -1.32395,0.35088 -0.64996,0.29614 -0.87874,0.24262 -1.46503,-0.34364 -0.38201,-0.38203 -1.17479,-0.89528 -1.76165,-1.1405 -0.58685,-0.24521 -1.22429,-0.73999 -1.41645,-1.09916 -0.39005,-0.72881 -0.74127,-3.19172 -0.62839,-4.40438 0.2303,-2.47108 -0.0561,-4.41611 -0.70383,-4.77852 -0.69583,-0.38936 -0.72334,-1.22628 -0.0403,-1.22628 0.41243,0 0.43811,-0.0898 0.13178,-0.45889 -0.40481,-0.48777 -0.17062,-1.75338 0.32452,-1.75338 0.16215,0 0.29508,-0.14195 0.29508,-0.31574 0,-0.17382 -0.2749,-0.31627 -0.61082,-0.31627 -0.80713,0 -1.225,-1.25379 -0.54467,-1.63452 0.57347,-0.32094 0.35257,-1.20975 -0.30075,-1.20975 -0.24203,1e-5 -0.44029,-0.22262 -0.44029,-0.49506 0,-0.34418 0.18485,-0.43681 0.60565,-0.30333 0.64804,0.20574 1.19338,-0.29291 0.67231,-0.61495 -0.17193,-0.10627 -0.47178,-0.79204 -0.66663,-1.52343 -0.19471,-0.73139 -0.54434,-1.54351 -0.77721,-1.80505 -0.23292,-0.26157 -0.52243,-1.22111 -0.64337,-2.13217 -0.19413,-1.46349 -0.40198,-1.82238 -1.78387,-3.07992 -0.86021,-0.78286 -1.71508,-1.42317 -1.89963,-1.42317 -0.18465,0 -0.50982,-0.23749 -0.72192,-0.52762 -0.25088,-0.3431 -0.90052,-0.54822 -1.8588,-0.58652 -1.728,-0.0691 -2.13177,-0.30814 -0.99994,-0.59221 1.19002,-0.29868 1.13294,-0.49194 -0.77566,-2.63912 -0.34763,-0.39108 -0.63187,-0.81791 -0.63252,-0.94826 -4.9e-4,-0.13037 -0.41424,-0.51379 -0.91932,-0.85215 -0.50508,-0.33838 -1.13766,-1.07519 -1.4056,-1.63711 -0.51131,-1.07218 -2.39327,-2.21145 -3.16415,-1.91564 -0.24096,0.0923 -0.56399,0.0417 -0.7183,-0.11266 -0.22074,-0.22073 -0.65619,-0.32274 -1.24851,-0.31057 z m -187.16997,21.26227 c 0.4191,-0.0113 0.83833,0.14301 1.58803,0.50591 0.77308,0.37426 1.56787,0.68006 1.7663,0.68006 0.19841,0 0.75793,0.49802 1.24333,1.10639 0.48541,0.60837 1.06072,1.10588 1.27797,1.10588 0.50202,0 0.48471,0.27829 -0.0791,1.26452 -0.58478,1.02136 -0.58309,1.26401 0.009,1.26401 0.75888,0 0.8659,0.76644 0.29302,2.09651 -0.2895,0.6721 -0.59192,1.91673 -0.67233,2.76624 -0.0804,0.8495 -0.35017,1.74852 -0.59944,1.99781 -0.24918,0.24927 -0.4532,0.78722 -0.4532,1.19528 0,0.40804 -0.23326,1.21571 -0.51832,1.79472 -0.28506,0.57898 -0.75967,1.53585 -1.05471,2.12648 h 10e-4 c -0.37946,0.75966 -0.78293,1.10036 -1.37821,1.16376 -0.46281,0.0493 -0.8413,-0.0236 -0.8413,-0.16175 0,-0.60707 -1.70378,-1.92153 -2.26134,-1.7446 -0.48128,0.15276 -0.58293,0.0141 -0.58293,-0.79478 0,-0.65883 -0.29274,-1.26586 -0.89297,-1.8526 -0.84534,-0.82633 -0.88151,-0.97321 -0.6759,-2.75487 0.11938,-1.03504 0.0945,-2.12156 -0.0553,-2.41432 -0.14978,-0.29274 -0.27234,-0.82589 -0.27234,-1.18494 0,-0.36963 -0.2055,-0.65268 -0.47387,-0.65268 -0.26085,0 -0.47389,-0.12498 -0.47389,-0.2775 0,-0.15252 0.21317,-0.45441 0.47389,-0.67076 0.26083,-0.21637 0.47387,-0.79424 0.47387,-1.28416 0,-0.48991 0.14245,-0.97873 0.31626,-1.08624 0.43098,-0.26633 0.40031,-1.3412 -0.0424,-1.4888 -0.23479,-0.0783 -0.18034,-0.29715 0.15814,-0.63561 0.28401,-0.28402 0.51626,-0.74024 0.51626,-1.01338 0,-0.29955 0.2735,-0.49661 0.68884,-0.49661 0.37875,0 1.14224,-0.16388 1.69654,-0.36432 0.3225,-0.11661 0.5738,-0.18287 0.82526,-0.18965 z m 182.12583,0.70383 c 0.55414,-0.008 1.15401,0.008 1.75649,0.0486 1.47665,0.0995 3.49374,0.20792 4.48242,0.24082 1.21767,0.0405 1.99898,0.24187 2.42207,0.62477 0.34351,0.31079 0.8855,0.53257 1.20458,0.49247 0.31909,-0.0403 0.82639,0.0341 1.12706,0.16485 0.81396,0.35431 1.78785,2.11155 1.76475,3.18379 -0.0112,0.5179 0.22623,1.68424 0.5271,2.59208 0.46458,1.40178 0.4904,1.88639 0.17208,3.21324 -0.26066,1.08678 -0.27593,1.74688 -0.0506,2.16783 0.18031,0.33677 0.24312,1.38571 0.14211,2.36523 -0.16221,1.57167 -0.076,1.9456 0.80719,3.48919 0.54399,0.95083 0.98908,1.8094 0.98908,1.9079 0,0.0985 -0.39119,0.60531 -0.8692,1.12655 -0.64749,0.70612 -0.9985,0.87489 -1.37666,0.66145 -0.27917,-0.15739 -1.02251,-0.24587 -1.65209,-0.19637 -0.62956,0.0496 -1.18687,-0.0358 -1.23817,-0.18965 -0.0513,-0.15395 -0.84674,-0.33904 -1.76785,-0.41134 -0.9211,-0.0723 -1.80345,-0.21163 -1.96112,-0.30903 -0.15762,-0.0974 -0.6099,4.6e-4 -1.00459,0.21704 -0.39469,0.21641 -1.03726,0.35499 -1.42834,0.30799 -0.3911,-0.0471 -0.71106,0.0822 -0.71106,0.28733 0,0.24925 -0.2879,0.30011 -0.86922,0.15296 -1.1867,-0.30022 -3.17955,-0.53001 -4.45656,-0.51212 -0.58245,0.008 -1.85751,-0.26624 -2.83342,-0.60926 -0.97592,-0.34299 -2.23295,-0.62374 -2.79363,-0.62374 -0.56068,0 -1.10072,-0.13109 -1.19991,-0.29145 -0.0992,-0.16044 -0.64064,-0.3903 -1.20357,-0.51056 -1.20745,-0.25816 -2.48398,-0.92357 -4.07106,-2.12132 -0.63339,-0.478 -1.30905,-0.8692 -1.50119,-0.8692 -0.19235,0 -0.34986,-0.35558 -0.34986,-0.79013 0,-0.43453 -0.10634,-0.7912 -0.23667,-0.7922 -0.13036,-10e-4 -0.57486,-0.49784 -0.98753,-1.10381 -0.67387,-0.98951 -0.70961,-1.2005 -0.3483,-2.07274 0.47268,-1.14115 3.57405,-3.77393 4.44572,-3.77393 0.40042,0 0.60306,-0.22119 0.60306,-0.65836 0,-0.37576 0.16491,-0.60372 0.38396,-0.53072 0.21098,0.0703 0.6522,-0.41532 0.98081,-1.07952 0.61823,-1.24953 1.47066,-1.62424 1.49088,-0.65474 0.006,0.30419 0.36946,-0.2138 0.80769,-1.15135 0.5547,-1.1865 0.89742,-1.60423 1.12758,-1.37408 0.3412,0.34122 0.83854,0.0463 2.3704,-1.4056 0.40145,-0.38047 0.98089,-0.67922 1.28778,-0.66352 0.30689,0.0157 1.12755,-0.1313 1.82367,-0.32659 0.47336,-0.13284 1.2706,-0.20999 2.19416,-0.22273 z m -182.82811,19.26652 c 0.94845,-0.009 1.91513,0.62789 1.91513,1.35393 0,0.22219 0.19672,0.40411 0.4372,0.40411 0.8287,0 1.11778,3.01646 0.48471,5.0586 -0.79049,2.54994 -0.86685,3.21701 -0.47387,4.15169 0.25866,0.61486 0.31086,1.39427 0.1514,2.26343 -0.58052,3.16508 -1.19094,5.32378 -1.7358,6.13864 -0.67442,1.00863 -0.74552,1.36542 -0.37312,1.86913 0.15987,0.21622 0.0726,0.55585 -0.2165,0.84491 -0.2658,0.26589 -0.47882,0.81417 -0.47181,1.21853 0.0123,0.81536 -0.23886,3.80529 -0.34054,4.0535 -0.0354,0.0869 -0.022,0.3006 0.0299,0.47439 0.0519,0.17382 0.20351,1.31128 0.33745,2.52801 0.3624,3.29217 0.62772,4.58267 0.94154,4.58267 0.15492,0 0.28438,0.3912 0.28837,0.8692 0.0115,1.44468 1.0786,3.34386 2.96259,5.27358 1.30072,1.33223 1.83463,2.14137 1.96631,2.97863 0.0994,0.63224 0.23971,1.21003 0.3116,1.28416 0.21299,0.21914 -1.2138,1.60352 -1.65262,1.60352 -0.22177,0 -0.54787,0.24927 -0.72501,0.55345 -0.1788,0.30705 -0.32776,0.37739 -0.33176,0.15813 -0.0134,-0.55025 -0.85137,-0.49637 -1.06815,0.0687 -0.0979,0.25525 -0.68217,0.67489 -1.29812,0.93224 -0.67794,0.28327 -1.11983,0.68613 -1.11983,1.02113 0,0.4305 -0.0843,0.4691 -0.3793,0.17415 -0.2086,-0.2086 -0.99785,-0.37931 -1.7539,-0.37931 -0.75605,0 -1.81567,-0.22811 -2.3549,-0.50694 -0.96657,-0.49984 -4.13591,-0.78311 -8.46926,-0.75758 -3.85918,0.0227 -4.26865,0.0223 -6.39235,-5.2e-4 -1.46437,-0.0158 -2.44812,0.15078 -3.16053,0.53434 -0.56888,0.30627 -1.24772,0.58125 -1.50844,0.61082 -1.08297,0.12326 -2.81263,1.10145 -3.00189,1.69808 -0.11186,0.35249 -0.58438,0.8329 -1.05008,1.06712 -0.46566,0.23418 -1.34448,0.43959 -1.95283,0.45527 -1.23622,0.033 -3.84133,-1.16587 -5.0736,-2.33474 -0.44408,-0.42123 -1.02981,-0.76585 -1.30172,-0.76585 -0.61892,0 -1.02936,-2.14132 -0.52658,-2.74712 0.19019,-0.22929 0.3718,-1.03298 0.40357,-1.78593 0.0398,-0.94429 0.28387,-1.60528 0.78756,-2.13114 1.10741,-1.1562 1.91619,-2.57715 1.9172,-3.36982 6.6e-4,-0.40322 0.20661,-0.72846 0.47543,-0.75086 0.26072,-0.0217 0.63606,-0.0567 0.83404,-0.0791 0.1981,-0.0217 0.54338,-0.65863 0.7669,-1.41594 0.2236,-0.75728 0.70144,-1.65214 1.06193,-1.98799 0.36052,-0.33585 0.65527,-0.86573 0.65527,-1.1777 0,-0.64528 3.27385,-3.04731 3.75118,-2.75229 0.16764,0.10367 0.99293,0.0408 1.83401,-0.13953 1.27127,-0.27262 1.82203,-0.22704 3.2675,0.27027 2.73278,0.94021 4.91974,0.34573 4.50877,-1.22577 -0.0888,-0.33956 -0.36685,-0.61701 -0.61754,-0.61701 -0.25072,0 -0.3638,-0.14946 -0.25114,-0.33176 0.13959,-0.22589 0.34922,-0.21162 0.65836,0.045 0.62952,0.52246 0.94165,0.1024 0.40463,-0.54467 -0.51639,-0.62209 -0.40368,-1.75039 0.20978,-2.10064 0.52131,-0.2976 0.24638,-1.17668 -0.36793,-1.17668 -0.63627,0 -0.54054,-0.55616 0.16021,-0.93121 0.44754,-0.23952 0.65609,-0.82533 0.81957,-2.30218 0.1206,-1.08957 0.41902,-2.39381 0.66352,-2.89853 0.24459,-0.5047 0.44495,-1.17555 0.44495,-1.49035 0,-0.31482 0.28435,-0.72443 0.63201,-0.91054 0.34761,-0.18604 0.63199,-0.54638 0.63199,-0.80098 0,-0.25465 0.28435,-0.46302 0.63201,-0.46302 0.34763,0 0.63201,0.14515 0.63201,0.32297 0,0.60996 1.51992,-0.67211 1.7141,-1.4459 0.10679,-0.42539 0.34362,-0.7736 0.52658,-0.7736 0.18293,0 0.50046,-0.17756 0.70537,-0.39481 0.6926,-0.73457 2.11104,-3.70375 2.11204,-4.42195 10e-4,-0.79206 0.89472,-2.39955 1.88307,-3.3879 0.45201,-0.45207 0.64389,-1.05692 0.64389,-2.02986 0,-1.1407 0.1442,-1.48029 0.81494,-1.91978 0.45321,-0.29698 0.74168,-0.72416 0.65011,-0.96273 -0.11454,-0.29838 0.0941,-0.42187 0.68625,-0.40617 0.46799,0.0123 1.30106,-0.0776 1.85155,-0.19947 0.1319,-0.0292 0.26707,-0.0432 0.40257,-0.0444 z m 186.34108,12.88294 c 0.24322,0.005 0.579,0.0748 1.00562,0.2098 0.80903,0.25599 1.71471,0.28721 2.84583,0.0982 1.32891,-0.22206 1.65933,-0.19117 1.65933,0.15555 0,0.29944 0.23454,0.37427 0.76016,0.24236 0.61553,-0.15449 0.84158,-0.0207 1.19011,0.70487 0.25518,0.53119 0.68563,0.89931 1.05729,0.90382 0.44228,0.006 0.59999,0.1918 0.53589,0.632 -0.20858,1.43109 -0.0191,4.40977 0.30541,4.80074 0.19237,0.23173 0.24649,0.52452 0.1204,0.65061 -0.34689,0.34685 -2.07281,0.27463 -2.07481,-0.0868 -0.003,-0.45318 -1.81628,-1.42214 -2.66133,-1.42214 -0.9339,0 -1.84146,-1.00348 -1.56321,-1.72857 0.17003,-0.44316 0.0893,-0.51708 -0.39688,-0.36277 -0.85602,0.27169 -2.64583,-1.40408 -2.64583,-2.47737 0,-0.44671 -0.17217,-1.08838 -0.38292,-1.42575 -0.37741,-0.60436 -0.29015,-0.90562 0.24494,-0.89452 z"
       id="path4671"
       inkscape:connector-curvature="0" />
  </g>
</svg>
